<?xml version="1.0" encoding="UTF-8"?> <svg xmlns="http://www.w3.org/2000/svg" width="119" height="119" viewBox="0 0 119 119" fill="none"><g clip-path="url(#clip0_27_116)"><path d="M53.3776 119C23.945 119 0 95.0549 0 65.6192C0 36.1835 23.945 12.2416 53.3776 12.2416C64.3213 12.2156 75.0054 15.5737 83.9665 21.8557C84.1865 22.0028 84.3749 22.1923 84.5207 22.4131C84.6665 22.634 84.7668 22.8817 84.8156 23.1418C84.8644 23.4019 84.8608 23.6691 84.805 23.9278C84.7492 24.1865 84.6423 24.4314 84.4906 24.6483C84.339 24.8651 84.1455 25.0495 83.9217 25.1906C83.6978 25.3317 83.448 25.4267 83.187 25.47C82.9259 25.5133 82.6588 25.5041 82.4014 25.4429C82.1439 25.3816 81.9013 25.2696 81.6877 25.1134C73.3985 19.3027 63.5159 16.1958 53.3929 16.2182C26.1688 16.2182 3.99187 38.3798 3.99187 65.6192C3.99187 92.8587 26.1535 115.023 53.3929 115.023C80.6324 115.023 102.797 92.8617 102.797 65.6192C102.818 55.4969 99.7103 45.6154 93.8987 37.3276C93.7425 37.114 93.6305 36.8713 93.5693 36.6139C93.5081 36.3564 93.4988 36.0894 93.5421 35.8283C93.5855 35.5672 93.6805 35.3175 93.8216 35.0936C93.9627 34.8697 94.1471 34.6763 94.3639 34.5246C94.5808 34.3729 94.8257 34.266 95.0844 34.2102C95.343 34.1544 95.6103 34.1508 95.8704 34.1996C96.1305 34.2485 96.3782 34.3487 96.599 34.4945C96.8199 34.6403 97.0094 34.8287 97.1565 35.0487C103.438 44.0035 106.797 54.6812 106.774 65.6192C106.758 95.0549 82.8133 119 53.3776 119Z" fill="#607083"></path><path d="M53.3776 100.791C47.9987 100.792 42.6911 99.5606 37.8628 97.1901C33.0345 94.8196 28.814 91.3734 25.526 87.1165C22.238 82.8597 19.97 77.9055 18.8964 72.6349C17.8227 67.3642 17.972 61.9176 19.3328 56.7138C20.6936 51.5099 23.2297 46.6874 26.746 42.617C30.2622 38.5467 34.6651 35.3369 39.6161 33.2345C44.567 31.1321 49.9342 30.193 55.3048 30.4895C60.6755 30.786 65.9067 32.3102 70.5961 34.9448C70.8236 35.073 71.0237 35.2447 71.1849 35.4502C71.3461 35.6556 71.4653 35.8908 71.5356 36.1424C71.6059 36.3939 71.626 36.6568 71.5947 36.9161C71.5634 37.1754 71.4813 37.4259 71.3531 37.6535C71.225 37.8811 71.0533 38.0811 70.8478 38.2423C70.6423 38.4036 70.4071 38.5227 70.1556 38.593C69.9041 38.6633 69.6412 38.6834 69.3819 38.6521C69.1227 38.6208 68.8721 38.5387 68.6445 38.4106C62.0796 34.7272 54.4033 33.5446 47.0342 35.0812C39.6651 36.6179 33.1012 40.7699 28.5555 46.77C24.0097 52.7702 21.7895 60.2129 22.3049 67.7229C22.8203 75.2328 26.0366 82.3024 31.3595 87.6253C36.6823 92.9481 43.7519 96.1644 51.2619 96.6798C58.7718 97.1953 66.2145 94.975 72.2147 90.4293C78.2148 85.8836 82.3669 79.3197 83.9035 71.9506C85.4401 64.5814 84.2575 56.9052 80.5742 50.3402C80.3269 49.8815 80.2697 49.3439 80.4148 48.8434C80.56 48.3428 80.8958 47.9193 81.3501 47.6639C81.8043 47.4085 82.3407 47.3416 82.8438 47.4778C83.3469 47.6139 83.7764 47.9421 84.0399 48.3917C87.0425 53.7448 88.5923 59.7903 88.5354 65.9277C88.4784 72.0651 86.8165 78.0808 83.715 83.3772C80.6134 88.6735 76.1801 93.0662 70.8554 96.1188C65.5307 99.1715 59.5 100.778 53.3623 100.778L53.3776 100.791Z" fill="#607083"></path><path d="M53.3776 82.584C51.0482 82.584 48.7438 82.1044 46.6079 81.1749C44.4719 80.2454 42.5503 78.886 40.9628 77.1814C39.3752 75.4768 38.1557 73.4635 37.3803 71.2669C36.6048 69.0704 36.29 66.7377 36.4555 64.4142C36.6209 62.0907 37.2632 59.8261 38.3421 57.7617C39.421 55.6972 40.9136 53.8771 42.7267 52.4147C44.5398 50.9523 46.6347 49.8789 48.8808 49.2615C51.1269 48.6441 53.476 48.4959 55.7819 48.8261C56.0423 48.8607 56.2932 48.9465 56.5202 49.0786C56.7472 49.2107 56.9457 49.3865 57.1044 49.5958C57.2631 49.805 57.3788 50.0437 57.4447 50.2979C57.5106 50.5522 57.5256 50.8169 57.4886 51.0769C57.4516 51.337 57.3635 51.5871 57.2293 51.8129C57.0951 52.0386 56.9175 52.2356 56.7068 52.3923C56.4961 52.5491 56.2564 52.6626 56.0016 52.7262C55.7467 52.7897 55.4818 52.8022 55.2222 52.7629C54.6141 52.6775 54.0008 52.6346 53.3868 52.6344C50.8179 52.6344 48.3067 53.3962 46.1707 54.8235C44.0348 56.2508 42.3701 58.2794 41.3871 60.6528C40.4042 63.0263 40.1472 65.6379 40.6486 68.1574C41.1499 70.6769 42.3872 72.9912 44.204 74.8075C46.0207 76.6238 48.3352 77.8605 50.8548 78.3613C53.3745 78.8621 55.986 78.6045 58.3592 77.621C60.7324 76.6375 62.7607 74.9723 64.1875 72.836C65.6143 70.6997 66.3755 68.1883 66.3749 65.6194C66.3747 65.0054 66.3318 64.3921 66.2464 63.7841C66.1774 63.2645 66.3163 62.7386 66.633 62.3209C66.9497 61.9033 67.4185 61.6275 67.9375 61.5537C68.4564 61.4799 68.9835 61.6141 69.4041 61.9269C69.8246 62.2398 70.1047 62.706 70.1832 63.2243C70.2943 64.0199 70.3505 64.8222 70.3514 65.6255C70.3449 70.1238 68.5541 74.4359 65.3718 77.6152C62.1896 80.7946 57.876 82.5816 53.3776 82.584Z" fill="#607083"></path><path d="M106.055 14.9306C105.661 14.9304 105.277 14.8136 104.95 14.5949C104.623 14.3763 104.368 14.0655 104.218 13.7021C104.068 13.3386 104.029 12.9387 104.106 12.553C104.183 12.1673 104.372 11.8131 104.651 11.5352L112.114 4.0715C112.488 3.69872 112.994 3.48946 113.521 3.48975C114.049 3.49003 114.554 3.69985 114.927 4.07303C115.3 4.44621 115.509 4.9522 115.509 5.47967C115.509 6.00714 115.299 6.5129 114.926 6.88568L107.462 14.3494C107.277 14.5343 107.058 14.6809 106.816 14.7807C106.575 14.8804 106.316 14.9314 106.055 14.9306Z" fill="#607083"></path><path d="M53.3776 67.6076C52.9849 67.6069 52.6012 67.4898 52.2749 67.2713C51.9486 67.0528 51.6944 66.7425 51.5442 66.3797C51.394 66.0169 51.3547 65.6177 51.4311 65.2325C51.5075 64.8473 51.6962 64.4933 51.9735 64.2153L89.0075 27.1783C89.3803 26.8051 89.8861 26.5953 90.4135 26.595C90.941 26.5947 91.447 26.8039 91.8202 27.1767C92.1934 27.5495 92.4032 28.0553 92.4035 28.5827C92.4037 29.1102 92.1945 29.6162 91.8217 29.9894L54.7846 67.0264C54.6001 67.2114 54.3807 67.358 54.1392 67.4577C53.8977 67.5575 53.6389 67.6084 53.3776 67.6076Z" fill="#607083"></path><path d="M90.4116 30.5737C89.9017 30.5735 89.4113 30.3771 89.0423 30.0251C88.6733 29.6731 88.4538 29.1927 88.4294 28.6833L87.9217 18.6196C87.8765 18.1761 87.9271 17.7281 88.0701 17.3059C88.2131 16.8837 88.4452 16.4971 88.7506 16.1724L102.112 0.810695L102.161 0.761754C102.507 0.416828 102.942 0.175231 103.417 0.0641459C103.893 -0.0469391 104.39 -0.0231054 104.853 0.132963C105.316 0.289032 105.726 0.571145 106.037 0.947565C106.348 1.32399 106.548 1.77978 106.615 2.26367L108.028 12.6639C108.063 12.9228 108.046 13.186 107.98 13.4386C107.913 13.6912 107.797 13.9281 107.639 14.1359C107.48 14.3436 107.282 14.5182 107.057 14.6496C106.831 14.7809 106.581 14.8665 106.322 14.9015C106.064 14.9364 105.8 14.92 105.548 14.8532C105.295 14.7865 105.058 14.6706 104.85 14.5122C104.431 14.1924 104.155 13.719 104.085 13.1961L103.075 5.75692L91.9013 18.6043L92.3999 28.4722C92.4266 28.9987 92.243 29.5142 91.8897 29.9054C91.5363 30.2966 91.0421 30.5315 90.5156 30.5584L90.4116 30.5737Z" fill="#607083"></path><path d="M100.686 31.0936C100.585 31.0936 100.481 31.0936 100.381 31.0936L90.3198 30.5705C89.7925 30.5438 89.2974 30.3086 88.9435 29.9168C88.5895 29.525 88.4057 29.0086 88.4325 28.4813C88.4593 27.954 88.6944 27.4589 89.0862 27.1049C89.478 26.751 89.9944 26.5672 90.5217 26.594L100.387 27.0926L113.234 15.9184L105.792 14.909C105.53 14.8777 105.277 14.7945 105.047 14.6644C104.818 14.5344 104.617 14.3599 104.455 14.1513C104.294 13.9426 104.176 13.7039 104.107 13.4491C104.039 13.1943 104.022 12.9285 104.058 12.6671C104.093 12.4058 104.18 12.1541 104.314 11.9267C104.448 11.6993 104.626 11.5009 104.837 11.3428C105.048 11.1848 105.288 11.0704 105.544 11.0062C105.8 10.9421 106.066 10.9295 106.327 10.9692L116.727 12.3824C117.212 12.4476 117.668 12.647 118.046 12.9581C118.423 13.2691 118.705 13.6795 118.862 14.1427C119.018 14.606 119.041 15.1037 118.93 15.5796C118.818 16.0556 118.575 16.4908 118.229 16.8361L118.128 16.9279L102.818 30.2432C102.242 30.7878 101.479 31.092 100.686 31.0936Z" fill="#607083"></path></g><defs><clipPath id="clip0_27_116"><rect width="119" height="119" fill="white"></rect></clipPath></defs></svg> 