<?xml version="1.0" encoding="UTF-8"?> <svg xmlns="http://www.w3.org/2000/svg" xmlns:xlink="http://www.w3.org/1999/xlink" version="1.1" id="Layer_1" x="0px" y="0px" viewBox="0 0 120 120" style="enable-background:new 0 0 120 120;" xml:space="preserve"> <style type="text/css"> .st0{fill:#315DAA;} .st1{fill:#FFFFFF;} </style> <g> <path class="st0" d="M83.8,105.1H36.2c-1,0-1.8-0.8-1.8-1.8s0.8-1.8,1.8-1.8h47.6c1,0,1.8,0.8,1.8,1.8 C85.6,104.3,84.8,105.1,83.8,105.1z"></path> <path class="st0" d="M78.6,100.2c-1,0-1.8-0.8-1.8-1.8v-4.8H43.2v4.8c0,1-0.8,1.8-1.8,1.8s-1.8-0.8-1.8-1.8v-6.6 c0-1,0.8-1.8,1.8-1.8h37.2c1,0,1.8,0.8,1.8,1.8v6.6C80.4,99.4,79.6,100.2,78.6,100.2z"></path> <path class="st0" d="M73.5,89c-1,0-1.8-0.8-1.8-1.8V83H48.3v4.2c0,1-0.8,1.8-1.8,1.8s-1.8-0.8-1.8-1.8v-5.9c0-1,0.8-1.8,1.8-1.8h27 c1,0,1.8,0.8,1.8,1.8v5.9C75.3,88.3,74.5,89,73.5,89z"></path> <path class="st0" d="M68.2,78L68.2,78c-1.1-0.1-1.8-0.9-1.7-1.9L68,54.5l-6.2-3.8c-0.8-0.5-1.1-1.6-0.6-2.4 c0.5-0.8,1.6-1.1,2.4-0.6l6.5,4c0.9,0.6,1.3,0.4,1.4,0.3c0.8-0.4,1.5-2,1.8-3.3l2-11.2c0.2-1.4-2.5-2.1-2.6-2.2l-3.2-0.9 c-0.9-0.3-1.5-1.2-1.3-2.2c0.3-0.9,1.2-1.5,2.2-1.3l3.2,0.9c3.7,1,5.7,3.4,5.2,6.2l-2,11.2c-0.1,0.8-0.9,4.6-3.8,5.9 c-0.4,0.2-1,0.4-1.6,0.4L70,76.4C69.9,77.3,69.1,78,68.2,78z"></path> <path class="st0" d="M51.9,78c-0.9,0-1.7-0.7-1.8-1.6l-1.5-20.7c-0.7-0.1-1.4-0.4-2-0.8c-1.9-1.2-3-3.7-3.4-5.5l-2-11.2 c-0.5-2.8,1.6-5.2,5.2-6.2l3.1-0.8c0.9-0.3,1.9,0.3,2.2,1.3c0.3,0.9-0.3,1.9-1.3,2.2l-3.1,0.8c-0.3,0.1-2.9,0.8-2.6,2.2l2,11.2 c0.2,1.1,0.9,2.6,1.8,3.2c0.4,0.2,0.7,0.3,1.1,0.2h0.1c0.1,0,0.2-0.1,0.4-0.1c1-0.1,1.8,0.7,1.9,1.6l1.6,22.4 c0.1,1-0.7,1.8-1.6,1.9C52,78,51.9,78,51.9,78z"></path> <path class="st0" d="M60,78c-1,0-1.8-0.8-1.8-1.8V59.7c0-1,0.8-1.8,1.8-1.8s1.8,0.8,1.8,1.8v16.5C61.8,77.2,61,78,60,78z"></path> <path class="st0" d="M95.3,77.9c-0.3,0-0.6-0.1-0.9-0.2L88,74c-0.8-0.5-1.1-1.6-0.6-2.4s1.6-1.1,2.4-0.6l6.4,3.7 c0.8,0.5,1.1,1.6,0.6,2.4C96.5,77.6,95.9,77.9,95.3,77.9z"></path> <path class="st0" d="M24.6,77.7c-0.6,0-1.2-0.3-1.5-0.9c-0.5-0.8-0.2-1.9,0.6-2.4l6.4-3.7c0.8-0.5,1.9-0.2,2.4,0.6 c0.5,0.8,0.2,1.9-0.6,2.4l-6.4,3.7C25.2,77.6,24.9,77.7,24.6,77.7z"></path> <path class="st0" d="M100.9,57.5h-7.4c-1,0-1.8-0.8-1.8-1.8s0.8-1.8,1.8-1.8h7.4c1,0,1.8,0.8,1.8,1.8S101.8,57.5,100.9,57.5z"></path> <path class="st0" d="M26.5,57.3h-7.4c-1,0-1.8-0.8-1.8-1.8s0.8-1.8,1.8-1.8h7.4c1,0,1.8,0.8,1.8,1.8S27.5,57.3,26.5,57.3z"></path> <path class="st0" d="M67.8,46c-0.2,0-0.3,0-0.5-0.1c-0.9-0.3-1.5-1.2-1.2-2.2l1-3.5c0.3-0.9,1.2-1.5,2.2-1.2 c0.9,0.3,1.5,1.2,1.2,2.2l-1,3.5C69.3,45.5,68.6,46,67.8,46z"></path> <path class="st0" d="M89,40.8c-0.6,0-1.2-0.3-1.5-0.9C87,39,87.3,38,88.2,37.5l6.4-3.7c0.8-0.5,1.9-0.2,2.4,0.6s0.2,1.9-0.6,2.4 L90,40.5C89.6,40.7,89.3,40.8,89,40.8z"></path> <path class="st0" d="M31.1,40.6c-0.3,0-0.6-0.1-0.9-0.2l-6.4-3.7c-0.8-0.5-1.1-1.6-0.6-2.4c0.5-0.8,1.6-1.1,2.4-0.6l6.4,3.7 c0.8,0.5,1.1,1.6,0.6,2.4C32.3,40.2,31.7,40.6,31.1,40.6z"></path> <path class="st0" d="M60,35.3c-4.8,0-9.1-6.9-9.1-12.3c0-4.9,3.6-8.1,9.1-8.1s9.1,3.2,9.1,8.1C69.1,28.4,64.8,35.3,60,35.3z"></path> <path class="st1" d="M60,18.5c-2.1,0-5.5,0.6-5.5,4.6c0,4.1,3.3,8.7,5.5,8.7s5.5-4.6,5.5-8.7C65.5,19.1,62.1,18.5,60,18.5z"></path> <path class="st0" d="M76.8,28.5c-0.3,0-0.6-0.1-0.9-0.2c-0.8-0.5-1.1-1.6-0.6-2.4l3.7-6.4c0.5-0.8,1.6-1.1,2.4-0.6s1.1,1.6,0.6,2.4 l-3.7,6.4C78,28.2,77.4,28.5,76.8,28.5z"></path> <path class="st0" d="M43.4,28.4c-0.6,0-1.2-0.3-1.5-0.9l-3.7-6.4c-0.5-0.8-0.2-1.9,0.6-2.4s1.9-0.2,2.4,0.6l3.7,6.4 c0.5,0.8,0.2,1.9-0.6,2.4C44,28.3,43.7,28.4,43.4,28.4z"></path> </g> </svg> 