<?xml version="1.0" encoding="UTF-8"?> <svg xmlns="http://www.w3.org/2000/svg" xmlns:xlink="http://www.w3.org/1999/xlink" version="1.1" id="Layer_1" x="0px" y="0px" viewBox="0 0 120 120" style="enable-background:new 0 0 120 120;" xml:space="preserve"> <style type="text/css"> .st0{fill:#315DAA;} </style> <g> <g> <path class="st0" d="M42.7,112c-1.6,0-3.2-0.4-4.6-1.2c-0.4-0.2-0.8-0.5-1.2-0.8c-1.3,1.3-3.1,2-5.3,2c-1.9,0-3.8-0.6-5.3-1.6 c-1.8-1.3-2.8-3.1-2.8-5.1c0,0,0,0,0,0L24,70.5L11.3,60c-4.1-2.4-4.7-6.5-3.1-9.4c1.6-2.8,5.5-4.6,9.5-2.3 c4.1,2.3,6.7,4.5,8.7,6.2c3.2,2.7,5,4.2,10.5,4.2c5.3,0,7.2-1.5,10.6-4.3c2.1-1.7,4.8-3.9,8.9-6.2c4-2.2,7.8-0.5,9.4,2.2 c1.6,2.8,1.1,6.9-3,9.5L49.2,70.5l0.6,34.8c0,2.5-1.1,4.5-3.1,5.7C45.6,111.7,44.1,112,42.7,112z M38.7,104.9c0,0.1,0,0.3,0,0.4 c0,1,0.7,1.6,1.3,1.9c1.4,0.8,3.4,0.9,4.6,0.2c0.7-0.4,1.1-1.1,1-2.1l-0.6-35.8c0-0.6,0.3-1.3,0.8-1.7l14.5-11.3 c0.1-0.1,0.1-0.1,0.2-0.1c2.2-1.3,2.3-2.9,1.7-4c-0.6-1.1-2.1-1.7-3.9-0.7c-3.8,2.1-6.2,4.1-8.3,5.8c-3.7,3-6.5,5.2-13.2,5.2 c-7,0-9.7-2.3-13.2-5.2c-2-1.7-4.3-3.6-8.1-5.7c-1.8-1-3.3-0.4-3.9,0.8c-0.6,1.1-0.5,2.6,1.7,3.9c0.1,0.1,0.2,0.1,0.3,0.2L27.4,68 c0.5,0.4,0.8,1,0.7,1.6l-0.5,35.8c0,1.5,2,2.6,3.9,2.6c1.1,0,3-0.3,3-2.6v-19c0-1.1,0.9-2.1,2.1-2.1c1.1,0,2.1,0.9,2.1,2.1V104.9z "></path> </g> <g> <path class="st0" d="M37.1,56.3c-6.5,0-11.8-5.3-11.8-11.8c0-6.5,5.3-11.8,11.8-11.8c6.5,0,11.8,5.3,11.8,11.8 C48.9,51,43.6,56.3,37.1,56.3z M37.1,36.8c-4.2,0-7.7,3.5-7.7,7.7c0,4.2,3.5,7.7,7.7,7.7c4.2,0,7.7-3.5,7.7-7.7 C44.8,40.2,41.3,36.8,37.1,36.8z"></path> </g> <g> <path class="st0" d="M111.4,37.5l-7.4-7.1l7.5-7.8c0.6-0.6,0.7-1.5,0.4-2.2c-0.3-0.8-1.1-1.2-1.9-1.2H93c-1.1,0-2.1,0.9-2.1,2.1 c0,1.1,0.9,2.1,2.1,2.1h12.2l-5.6,5.8c-0.8,0.8-0.8,2.1,0.1,2.9l5.2,5H88.8v-4.8c0-0.1,0-0.2,0-0.2V15.4c0-1.1-0.9-2-2-2H61.9 v-2.8c0-1.1-0.9-2.1-2-2.1c-1.1,0-2.1,0.9-2.1,2.1V43c0,1.1,0.9,2.1,2.1,2.1c1.1,0,2-0.9,2-2.1v-9.1h22.8V39 c0,1.1,0.9,2.1,2.1,2.1h23.2c0.8,0,1.6-0.5,1.9-1.3C112.2,39,112,38.1,111.4,37.5z M61.9,29.8V17.5h22.8v12.3H61.9z"></path> </g> <g> <path class="st0" d="M59.8,112.4c-1.1,0-2.1-0.9-2.1-2.1V68.1c0-1.1,0.9-2.1,2.1-2.1c1.1,0,2.1,0.9,2.1,2.1v42.2 C61.9,111.5,60.9,112.4,59.8,112.4z"></path> </g> </g> </svg> 