<?xml version="1.0" encoding="UTF-8"?> <svg xmlns="http://www.w3.org/2000/svg" xmlns:xlink="http://www.w3.org/1999/xlink" version="1.1" id="Layer_1" x="0px" y="0px" viewBox="0 0 120 120" style="enable-background:new 0 0 120 120;" xml:space="preserve"> <style type="text/css"> .st0{fill:#315DAA;} </style> <g> <path class="st0" d="M72.3,17.9c-12.3,0.5-21.9,5.4-28,16.3c-2,3.6-3,7.5-3.1,11.6c0,0.3,0,0.7,0,1c-0.1,0.9-0.5,1.6-1.6,1.6 c-1,0-1.5-0.7-1.5-1.6c0.1-1.6,0.1-3.3,0.4-4.9C41,28.6,51.4,18.2,64.7,15.7c11.4-2.2,21.8,0.2,30.5,7.8c11.5,10,14.2,25.3,7,39.3 c-2.1,4.1-4.8,8-7.6,11.7c-4.7,6.2-8.6,12.8-10.6,20.5c-1.4,5.2-4.7,8.6-10,9.9c-5.3,1.3-10.6,1.7-15.8-0.3c-3.9-1.5-7-4-8.9-7.8 c-0.4-0.7-0.6-1.5-0.9-2.3c-0.3-0.9-0.2-1.8,0.9-2.2c1-0.3,1.7,0.2,2,1.2c1.9,5.8,6.3,8.6,12,9.1c3.3,0.3,6.7-0.1,10-0.7 c4.3-0.8,6.8-3.9,7.9-8c1.4-5.4,3.6-10.4,6.6-15c1.7-2.6,3.6-5,5.5-7.5c4.1-5.3,7.5-10.8,9-17.4C105.5,39.5,98,25.6,84,20.3 c-2.1-0.8-4.3-1.4-6.5-1.8C75.8,18.1,74,18.1,72.3,17.9z"></path> <path class="st0" d="M50.7,62.5c3.6-6,9.1-7,14.2-2.7c4.8,4,7,9.2,6.3,15.5c-0.8,6.5-6.9,9.7-12.6,6.4c-2-1.1-3.8-2.8-5.1-4.6 c-9-12.1-8.2-30.6,1.7-42c6.2-7.2,15.2-9.6,23.8-6.5c8.3,3,13.8,10.9,14.2,20.1c0.3,7.5-2.5,13.9-6.9,19.8 c-0.7,0.9-1.5,1.4-2.4,0.6c-1-0.8-0.6-1.7,0-2.5c3.2-4.2,5.6-8.8,6.2-14.1c0.9-8.1-2.7-17.7-12.1-20.9c-7.1-2.4-13.6-1.3-19,4.1 c-7,7-9.3,15.7-8.5,25.4C50.4,61.4,50.6,61.8,50.7,62.5z M68.3,73.1c-0.3-5.1-2.3-9.3-6.8-12c-3.6-2.1-7-0.6-8,3.5 c-1.2,4.5,1.1,10.6,5.3,13.6c1.9,1.4,4,2.3,6.3,1.3c2.3-1.1,3-3.3,3.2-5.6C68.3,73.7,68.3,73.4,68.3,73.1z"></path> <path class="st0" d="M36,71.8C36,65.7,33.3,60,28.3,55.3c-0.4-0.3-0.7-0.6-1.1-0.9c-0.7-0.7-1.1-1.4-0.4-2.3c0.7-0.8,1.6-0.6,2.4,0 c4.4,3.5,7.6,8,8.9,13.5c2.7,10.7-0.3,19.7-8.6,27c-0.3,0.3-0.7,0.5-1,0.7c-0.9,0.7-1.9,1.1-2.7,0c-0.8-1-0.1-1.8,0.8-2.4 c2.4-1.8,4.5-4,6.1-6.6C34.9,80.7,36,76.8,36,71.8z"></path> <path class="st0" d="M28.4,72.7c-0.2,4.5-1.9,8.3-5.5,11.2c-0.8,0.7-1.8,1.6-2.8,0.4c-1-1.2-0.1-2,0.8-2.7c4-3.4,5.4-7.8,3.7-12.7 c-0.6-1.9-2.2-3.6-3.4-5.2c-0.7-0.9-1.5-1.5-0.7-2.6c0.6-0.9,1.6-0.7,2.8,0.4C26.7,64.3,28.2,68.1,28.4,72.7z"></path> <path class="st0" d="M19,72.6c0,1.8-0.6,3.2-1.9,4.4c-0.7,0.7-1.6,1-2.4,0.2c-0.8-0.7-0.5-1.5,0.2-2.3c1.6-1.9,1.6-2.4,0.1-4.4 c-0.6-0.8-0.9-1.6,0-2.3c0.9-0.8,1.7-0.4,2.3,0.3C18.5,69.5,19.1,70.9,19,72.6z"></path> </g> </svg> 