<?xml version="1.0" encoding="UTF-8"?> <svg xmlns="http://www.w3.org/2000/svg" xmlns:xlink="http://www.w3.org/1999/xlink" version="1.1" id="Layer_1" x="0px" y="0px" viewBox="0 0 120 120" style="enable-background:new 0 0 120 120;" xml:space="preserve"> <style type="text/css"> .st0{fill:#315DAA;} </style> <g> <g> <path class="st0" d="M74.3,100.4c-0.5,0-0.9,0-1.4-0.1c-1.2-0.2-1.9-1.3-1.7-2.4c0.2-1.2,1.3-1.9,2.4-1.7c1.8,0.3,4-0.8,4.9-2.5 c0.8-1.5,0.4-3.2-1.1-4.8c-0.3-0.3-0.4-0.6-0.5-0.9L66,76.8c-0.8-0.8-0.8-2.2,0-3c0.8-0.8,2.2-0.8,3,0l13,13.3 c1.9,2,4.8,1,6.2-0.4c0.9-0.8,2.6-3.1-0.1-5.9c0,0,0,0,0,0L76.3,68.6c0,0-0.1-0.1-0.1-0.1l-0.8-0.8c-0.8-0.8-0.8-2.2,0-3 c0.8-0.8,2.2-0.8,3,0l12.7,13.1c0,0,0,0,0,0c2.5,2.6,4.5,1.4,5.5,0.5c1.7-1.6,2.3-4.5,0.5-6.4L74,47.6c-0.8-0.8-0.8-2.2,0.1-3 c0.8-0.8,2.2-0.8,3,0.1l23.2,24.3c1.7,1.8,2.5,4.1,2.2,6.6c-0.2,2.2-1.3,4.3-2.8,5.8c-1.5,1.5-3.6,2.4-5.8,2.3c0,0.2,0,0.4,0,0.6 c-0.1,2-1,4-2.6,5.5c-1.6,1.5-3.7,2.5-5.8,2.7c-0.8,0.1-1.5,0-2.2-0.1c0,1.1-0.3,2.2-0.9,3.3C80.7,98.6,77.5,100.4,74.3,100.4z M103.8,65.3c-0.5,0-1.1-0.2-1.5-0.6c-0.8-0.8-0.8-2.2,0-3l0.9-0.9c6.5-6.5,9.6-19.1-3.4-33.1c-2.9-3.1-6.2-5.7-9.4-7.5 c-2.9-1.6-16.8-6.4-25.9,2.5L44.9,42c-0.9,0.9-0.6,1.2-0.2,1.6c1.9,1.9,8.2,2.8,12-0.9l4.9-4.8c0,0,0,0,0.1-0.1 c4.2-3.8,9-2.4,13.2-1.1c4.8,1.5,9.4,2.8,14.7-1.4c0.9-0.7,2.3-0.6,3,0.4c0.7,0.9,0.6,2.3-0.4,3c-7.1,5.6-13.4,3.6-18.6,2.1 c-4.3-1.3-6.8-1.9-9.1,0.2l-4.9,4.8c-5.5,5.4-14.6,4.3-18,0.9c-2.2-2.2-2.1-5.2,0.2-7.6l19.5-19.4C66,15.2,72,13,79,13.1 c5.8,0.1,10.8,1.8,13.4,3.3c3.6,2,7.2,4.9,10.4,8.4c10.2,10.9,15.1,27.2,3.3,39l-0.9,0.9C104.8,65,104.3,65.3,103.8,65.3z M17.2,62.9c-0.5,0-1.1-0.2-1.5-0.6l-1.6-1.6c-5.4-5.4-7.8-12.2-6.9-19.5c0.8-6.4,4-12.8,9.2-18c5.3-5.3,11.8-8.8,18.4-9.7 c7.6-1,14.6,1.3,20.2,6.8c0.8,0.8,0.9,2.2,0,3c-0.8,0.8-2.2,0.9-3,0c-7.3-7.1-20.7-9.3-32.6,2.8c-4.5,4.5-7.3,10.1-8,15.5 c-0.7,6,1.3,11.5,5.7,16l1.6,1.6c0.8,0.8,0.8,2.2,0,3C18.3,62.7,17.8,62.9,17.2,62.9z"></path> </g> <g> <path class="st0" d="M55.1,109.6c-2.1,0-4.2-0.8-5.8-2.4l-0.7-0.7c-1.5-1.5-2.4-3.6-2.4-5.8c0-0.1,0-0.1,0-0.2 c-0.4,0.1-0.8,0.1-1.2,0.1c0,0,0,0,0,0c-2.2,0-4.2-0.8-5.8-2.4l-0.7-0.7c-1.5-1.5-2.4-3.6-2.4-5.8c0-0.1,0-0.1,0-0.2 c-2.6,0.5-5.3-0.3-7.3-2.2l-0.7-0.7c-1.5-1.5-2.4-3.6-2.4-5.8c0-0.2,0-0.4,0-0.6c-2.4,0.3-4.9-0.5-6.7-2.3l-0.7-0.7 c-3.2-3.2-3.2-8.3,0-11.5l9-9c1.5-1.5,3.6-2.4,5.8-2.4c0,0,0,0,0,0c2.2,0,4.2,0.8,5.8,2.4h0l0.7,0.7c1.2,1.2,1.9,2.6,2.2,4.1 l0.7-0.7c1.5-1.5,3.6-2.4,5.8-2.4c2.2,0,4.2,0.8,5.8,2.4l0.7,0.7c1.5,1.5,2.4,3.6,2.4,5.8c0,1.7-0.5,3.3-1.5,4.6 c1.5,0.3,3,1,4.2,2.2h0l0.7,0.7c2.6,2.6,3.1,6.7,1.3,9.8c1.6,0.3,3.1,1.1,4.3,2.2l0.7,0.7c3.2,3.2,3.2,8.3,0,11.5l-6,6 C59.3,108.8,57.2,109.6,55.1,109.6z M60.5,90.8c-1,0-2,0.4-2.8,1.1l-6,6c-0.7,0.7-1.1,1.7-1.1,2.8c0,1,0.4,2,1.1,2.8l0.7,0.7 c1.5,1.5,4,1.5,5.5,0l6-6c1.5-1.5,1.5-4,0-5.5L63.2,92C62.5,91.2,61.5,90.8,60.5,90.8C60.5,90.8,60.5,90.8,60.5,90.8z M54.2,78.1 c-1,0-2,0.4-2.8,1.1L41.6,89c-0.7,0.7-1.1,1.7-1.1,2.8c0,1,0.4,2,1.1,2.8l0.7,0.7c0.7,0.7,1.7,1.1,2.8,1.1c1,0,2-0.4,2.8-1.1 l9.8-9.8c1.5-1.5,1.5-4,0-5.5l-0.7-0.7C56.2,78.5,55.2,78.1,54.2,78.1z M48.3,64.8c-1,0-2,0.4-2.8,1.1L31.3,80.2 c-0.7,0.7-1.1,1.7-1.1,2.8c0,1,0.4,2,1.1,2.8l0.7,0.7c1.5,1.5,4,1.5,5.5,0l14.3-14.3c0.7-0.7,1.1-1.7,1.1-2.8c0-1-0.4-2-1.1-2.8 l-0.7-0.7C50.4,65.2,49.4,64.8,48.3,64.8z M33.3,60.7c-1,0-2,0.4-2.8,1.1l-9,9c-1.5,1.5-1.5,4,0,5.5l0.7,0.7c1.5,1.5,4,1.5,5.5,0 l9-9c1.5-1.5,1.5-4,0-5.5L36,61.8C35.3,61.1,34.3,60.7,33.3,60.7C33.3,60.7,33.3,60.7,33.3,60.7z"></path> </g> </g> </svg> 