<?xml version="1.0" encoding="UTF-8"?> <svg xmlns="http://www.w3.org/2000/svg" xmlns:xlink="http://www.w3.org/1999/xlink" version="1.1" id="Layer_1" x="0px" y="0px" viewBox="0 0 120 120" style="enable-background:new 0 0 120 120;" xml:space="preserve"> <style type="text/css"> .st0{fill:#315DAA;} </style> <g> <g> <path class="st0" d="M45.6,107.1c-4.7,0-10-2.2-15.2-6.4c-5-4-9.3-9.6-11.9-15.2c-3-6.4-3.5-12.3-1.7-17L24.6,41 c0-0.1,0-0.1,0.1-0.2c0.7-1.9,2.4-5.2,5.1-6.4c1.3-0.5,2.7-0.5,4,0.1c0,0,0,0,0.1,0c4.3,2.1,6.7,8.9,5.7,12.8 c-0.6,2.1-1.3,4.7-1.4,6.1c0.6-0.3,1.8-0.9,3.7-2.3L66,33.7c3.8-2.7,8.5-1.1,10.8,2.1c1.1,1.6,1.6,3.4,1.4,5.2 c-0.2,1.4-0.9,3.5-3.4,5.3l-15,11c-0.8,0.6-2,0.4-2.6-0.4c-0.6-0.8-0.4-2,0.4-2.6l15-11c3-2.2,1.9-4.5,1.2-5.4 c-1.2-1.7-3.7-2.7-5.7-1.2L43.9,54.1c-3.8,2.7-6.3,4-8.2,2.7c-2.1-1.5-1.3-4.7,0.3-10.5c0.6-2.3-1.2-7.2-3.7-8.5 c-0.4-0.2-0.7-0.2-1,0c-1,0.4-2.2,2.1-3,4.2l-7.8,27.5c0,0.1,0,0.1-0.1,0.2c-3.3,8.3,3.8,21.1,12.4,28.1c6.8,5.5,13.5,7.1,18,4.1 l19.7-13l15.8-11.1c2-1.4,2.3-3.1,2.2-4.2c-0.1-1.6-1.1-3-2.5-3.7c-1.1-0.5-2.4-0.3-3.6,0.5l-12,8.6c-0.8,0.6-2,0.4-2.6-0.4 c-0.6-0.8-0.4-2,0.4-2.6l12-8.6c2.3-1.6,4.9-1.9,7.2-0.9c2.5,1.2,4.3,3.8,4.6,6.7c0.3,3-1.1,5.7-3.7,7.6L72.6,92c0,0,0,0-0.1,0 l-19.8,13C50.6,106.4,48.2,107.1,45.6,107.1z"></path> </g> <g> <path class="st0" d="M65.6,67.7c-0.6,0-1.1-0.3-1.5-0.8c-0.6-0.8-0.4-2,0.4-2.6l20.1-14.2c2.2-1.6,1.7-4.4,0.6-6 c-0.6-0.9-2.5-2.8-5.5-0.7L60.1,57.2c-0.8,0.6-2,0.4-2.6-0.4c-0.6-0.8-0.4-2,0.4-2.6l19.6-13.7c4.4-3.1,8.5-1.4,10.6,1.6 c1.2,1.6,1.7,3.7,1.6,5.7c-0.2,2.2-1.2,4.2-3,5.5L66.6,67.3C66.3,67.6,65.9,67.7,65.6,67.7z"></path> </g> <g> <path class="st0" d="M80.8,71.2c-0.6,0-1.1-0.3-1.5-0.8c-0.6-0.8-0.4-2,0.4-2.6l6.9-4.9c2-1.4,1.9-4,0.7-5.8 c-0.6-0.9-2.4-2.8-5.5-0.7c-0.8,0.6-2,0.3-2.6-0.5c-0.6-0.8-0.3-2,0.5-2.6c4.5-3,8.6-1.4,10.6,1.6c1.1,1.6,1.6,3.6,1.5,5.5 c-0.2,2.2-1.3,4.1-3.1,5.3l-6.9,4.9C81.5,71.1,81.2,71.2,80.8,71.2z"></path> </g> <g> <path class="st0" d="M94.2,66.5c-0.5,0-1.1-0.2-1.5-0.7c-0.6-0.8-0.5-2,0.3-2.6l7.4-5.7c1.9-1.5,2.1-3.1,2-4.3 c-0.2-1.6-1.3-3-2.7-3.6c-1.2-0.5-2.4-0.2-3.6,0.7c-0.8,0.6-2,0.5-2.6-0.3c-0.6-0.8-0.5-2,0.3-2.6c2.2-1.7,4.8-2.2,7.2-1.2 c2.6,1,4.5,3.6,4.9,6.5c0.4,2.9-0.8,5.7-3.3,7.7l-7.4,5.7C95,66.3,94.6,66.5,94.2,66.5z"></path> </g> <g> <path class="st0" d="M50.4,39.5c-0.5,0-1-0.1-1.5-0.4c-2.2-1.4-1.5-4.6-0.2-10.5c0.5-2.3-1.6-7.2-4.1-8.3c-0.4-0.1-0.7-0.1-1,0 c-1,0.5-2.1,2.2-2.8,4.4l-1.9,6.8c-0.3,1-1.3,1.6-2.3,1.3c-1-0.3-1.6-1.3-1.3-2.3l1.9-6.8c0,0,0-0.1,0-0.1 c0.6-1.9,2.1-5.3,4.8-6.6c1.3-0.6,2.6-0.7,4-0.1c0,0,0,0,0.1,0c4.4,1.9,7.1,8.5,6.3,12.5c-0.5,2.2-1,4.7-1.1,6.1 c0.6-0.3,1.7-1,3.5-2.5l23.4-18.6c1.7-1.4,3.9-1.9,6.1-1.4c1.9,0.4,3.7,1.5,5,3.1c2.3,2.9,2.8,7.4-1.4,10.8 c-0.8,0.6-1.9,0.5-2.6-0.3c-0.6-0.8-0.5-1.9,0.3-2.6c2.9-2.4,1.6-4.7,0.8-5.6c-1.4-1.7-4-2.6-5.9-1.1L57,35.9 C54.2,38.1,52.1,39.5,50.4,39.5z"></path> </g> <g> <path class="st0" d="M92,38.4c-0.5,0-1.1-0.2-1.4-0.7c-0.6-0.8-0.5-2,0.3-2.6l6.7-5.2c1.4-1.1,1.4-2.7,1.3-3.6 c-0.3-1.8-1.5-3.4-2.9-3.9c-1.2-0.4-2.4-0.1-3.6,1l-10.9,9.3c-0.8,0.7-1.9,0.6-2.6-0.2c-0.7-0.8-0.6-1.9,0.2-2.6l10.9-9.3 c2.3-2,4.9-2.5,7.3-1.7c2.6,1,4.7,3.7,5.2,6.8c0.4,2.8-0.5,5.4-2.6,7.1L93.1,38C92.8,38.3,92.4,38.4,92,38.4z"></path> </g> <g> <path class="st0" d="M94.7,51.2c-0.5,0-1.1-0.2-1.4-0.7c-0.6-0.8-0.5-2,0.3-2.6l6.7-5.2c1.9-1.5,1.7-4.1,0.4-5.8 c-0.7-0.9-2.5-2.6-5.6-0.4c-0.8,0.6-2,0.4-2.6-0.4c-0.6-0.8-0.4-2,0.4-2.6c4.3-3.2,8.5-1.8,10.7,1.1c1.2,1.6,1.8,3.5,1.7,5.5 c-0.1,2.2-1.1,4.1-2.8,5.5l-6.7,5.2C95.4,51,95,51.2,94.7,51.2z"></path> </g> </g> </svg> 