<?xml version="1.0" encoding="UTF-8"?> <svg xmlns="http://www.w3.org/2000/svg" xmlns:xlink="http://www.w3.org/1999/xlink" version="1.1" id="Layer_1" x="0px" y="0px" viewBox="0 0 120 120" style="enable-background:new 0 0 120 120;" xml:space="preserve"> <style type="text/css"> .st0{fill:#315DAA;} </style> <g> <path class="st0" d="M56.7,61.4c3-2.7,5.9-5.2,8.5-7.9c1.6-1.6,3.1-1.9,5.2-1.3c3.9,1.2,7.7,2.6,11.1,4.9c4,2.7,6.9,6.2,8.4,10.8 c0.3,1,0.9,1.4,1.9,1.6c2.2,0.5,4.4,1.1,6.6,1.6c1.4,0.3,2,1.1,2,2.6c-0.1,4.2,0,8.4-0.1,12.6c0,1.2,0.2,1.8,1.3,2.4 c4.5,2.7,6.7,6.7,6.2,12c-0.5,5-3.3,8.5-8,10.3c-4.3,1.6-8.4,0.9-12-2.1c-1.1-0.9-1.9-1.1-3-0.3c-2.8,1.9-5.6,1.6-8.5,0.1 c-4-2-7.6-4.4-10.3-8c-0.8-1.1-1.7-1-2.7-1c-12.7,0-25.5,0-38.2,0c-2.7,0-2.9-0.2-2.9-2.8c0-6.9,0.1-13.7,0-20.6 c-0.1-10.2,4.6-17.3,13.7-21.5c2.7-1.3,5.7-2,8.6-3c1.1-0.4,2,0,2.8,0.8C50.3,55.5,53.4,58.3,56.7,61.4z M25.1,96.7 c12.9,0,25.5,0,38.2,0c-0.6-1.7-1.2-3.3-1.5-4.9c-1.3-6.3-0.6-12.6-0.6-19c0-0.5,0.8-1.3,1.4-1.6c1.3-0.6,2.7-0.9,4.1-1.3 c1.8-0.4,3.6-0.8,5.6-1.2c0-1.1,0-2.2,0-3.2c0-3,0.2-6-0.8-8.8c-0.8-2.1-2.5-2.6-4.1-1.1c-2.9,2.7-5.8,5.3-8.7,8 c-1.5,1.4-1.9,1.4-3.4,0c-3-2.7-5.9-5.4-8.9-8.1c-1.4-1.3-2.2-1.1-2.8,0.7c-1.5,4.1-0.9,8.2-0.9,12.4c0.7,0.1,1.1,0.2,1.5,0.3 c5.1,1.4,7.5,4.5,7.5,9.8c0,1,0,2.1,0,3.1c0,1.8,0,3.6,0,5.4c-0.1,1.7-1,2.7-2.5,2.7c-1.2,0-2.2-1.3-1.4-2c1.2-1.1,0.9-2.4,1-3.7 c0-2.1,0-4.1,0-6.2c0.1-2.5-1.1-4.2-3.2-5.3c-2.1-1.2-4.4-1.4-6.8-0.8c-3.8,0.9-5.4,3-5.4,6.9c0,2.3-0.1,4.7,0,7 c0,0.6,0.5,1.2,0.6,1.9c0.2,0.6,0.4,1.3,0.2,1.7c-0.2,0.4-0.9,0.6-1.4,0.7c-1.4,0.1-2.3-1-2.3-2.7c0-3,0-6.1,0-9.1 c-0.1-3.8,1.7-6.4,5-8.1c1.2-0.6,2.6-1,4-1.5c0.2-4,0.3-8,0.5-12.2c-0.8,0.3-1.5,0.6-2.3,0.9c-8.1,3.8-12.6,9.8-12.4,19 c0.1,6.1,0,12.3,0,18.4C25.1,95.3,25.1,95.9,25.1,96.7z M64,73.6c0,3.7,0,7,0,10.4c0,1.7,0,3.5,0.2,5.2c1.2,8.3,6.4,13.5,13.7,17 c2.6,1.3,4.6,0.6,6.7-0.9C80.6,96,86.9,86.7,97.3,87c0-4.4,0-8.8,0-13.4C86.2,70.8,75.2,70.5,64,73.6z M95.7,108.9 c5.3,0,9.5-4.2,9.5-9.5c0-5.1-4.2-9.3-9.4-9.4c-5.2,0-9.5,4.3-9.5,9.5C86.3,104.6,90.6,108.9,95.7,108.9z M74.8,68.6 c4.4,0,8.3,0,12.5,0c-2.4-6.1-6.9-9.6-12.5-11.9C74.8,60.8,74.8,64.6,74.8,68.6z"></path> <path class="st0" d="M76.5,28.9c0,11-8.8,19.8-19.9,19.8c-10.8,0-19.7-9-19.7-19.8c0-11,8.9-19.8,20-19.8 C67.8,9.1,76.5,17.9,76.5,28.9z M39.8,29c0.1,9.3,7.7,16.8,17,16.8c9.2,0,16.9-7.7,16.9-17c0-9.4-7.8-17.1-17.1-16.9 C47.3,12,39.8,19.6,39.8,29z"></path> <path class="st0" d="M80.7,88.9c0,4.1,0,8.3,0,12.4c0,2.4-0.8,2.9-3,1.8c-7.1-3.7-11-9.3-11-17.5c0-2.7,0-5.4-0.1-8.1 c0-1.5,0.6-2.2,2-2.4c3.3-0.4,6.7-0.8,10-1c1.7-0.1,2.1,0.4,2.1,2.2C80.7,80.5,80.7,84.7,80.7,88.9z M77.8,76.9 c-2.9,0.3-5.6,0.7-8.2,1c0,3.3-0.2,6.4,0,9.4c0.3,5,2.8,8.9,6.9,11.8c0.3,0.2,0.7,0.3,1.2,0.5C77.8,92,77.8,84.7,77.8,76.9z"></path> <path class="st0" d="M94.5,101.5c1.3-1.7,2.5-3.3,3.7-4.9c0.3-0.4,0.5-0.7,0.8-1.1c0.6-0.8,1.4-1,2.2-0.4c0.7,0.6,0.6,1.3,0.1,2.1 c-1.3,1.8-2.7,3.7-4,5.5c-2.2,3-2.3,3-5.2,0.7c-0.8-0.6-1.6-1.1-2.2-1.8c-0.3-0.4-0.5-1.5-0.2-1.8c0.3-0.4,1.3-0.6,1.8-0.3 C92.5,99.8,93.3,100.7,94.5,101.5z"></path> </g> </svg> 