<?xml version="1.0" encoding="UTF-8"?> <svg xmlns="http://www.w3.org/2000/svg" xmlns:xlink="http://www.w3.org/1999/xlink" version="1.1" id="Layer_1" x="0px" y="0px" viewBox="0 0 120 120" style="enable-background:new 0 0 120 120;" xml:space="preserve"> <style type="text/css"> .st0{fill:#315DAA;} </style> <g> <g> <path class="st0" d="M66.2,83.4c-3.2,0-6.3-0.8-9.1-2.5c-0.9-0.5-1.2-1.7-0.7-2.6c0.5-0.9,1.7-1.2,2.6-0.7c2.3,1.3,4.9,2,7.5,1.9 l16.9-0.4c0.7,0,1.2-0.4,1.4-0.7c0.4-0.5,0.7-1.1,0.6-1.8c0-0.4-0.2-0.7-0.4-1.1c-0.2-0.1-0.5-0.1-0.8-0.2 c-0.8-0.2-1.2-0.3-1.6-0.5c-0.7-0.4-1-1.2-0.9-2c0.1-0.8,0.7-1.4,1.5-1.6c0.3-0.1,0.6-0.1,1.3-0.1c0.3,0,0.7,0,1-0.1 c0.8-0.4,1.2-1.3,1.1-2.1c0,0,0,0,0,0c0-0.5-0.2-0.9-0.5-1.3c-0.1,0-0.3-0.1-0.4-0.1c-0.5-0.2-0.9-0.3-1.2-0.4 c-0.7-0.4-1-1.2-0.9-2c0.1-0.8,0.7-1.4,1.5-1.6c0.3-0.1,0.6-0.1,1.1-0.1c0.2,0,0.4,0,0.6,0c0.8-0.4,1.2-1.3,1.1-2.1 c0-0.1-0.1-0.3-0.4-0.5l-1.5-1c-0.7-0.5-1.1-1.4-0.8-2.2c0.3-0.8,1.1-1.4,2-1.3l0.4,0c0.2,0,0.9-0.1,1.1-0.1 c0.9-0.3,1.6-1.3,1.6-2.5c0-0.6-0.3-1-0.6-1.3c-0.5-0.5-1.2-0.7-1.8-0.7l-15.7,1c-0.7,0-1.4-0.3-1.7-0.9c-0.4-0.6-0.4-1.3-0.1-2 l4.3-7.7c1-1.7,1.6-6.8,1.1-8.2c-0.1-0.3-0.8-0.7-1.6-0.8c-0.5,0-0.7,0.1-0.7,0.2l-4.7,9.5c-0.1,0.2-0.2,0.4-0.4,0.6L59,52.2 c-0.8,0.7-2,0.7-2.7-0.1c-0.7-0.8-0.7-2,0.1-2.7l8.9-8.3l4.5-9.1c0.8-1.5,2.4-2.4,4.4-2.3c1.9,0.1,4.2,1.1,5,3.2 c1.1,2.8-0.1,9.1-1.3,11.4L75.3,49l12.2-0.8c1.7-0.1,3.5,0.5,4.7,1.7c1.2,1.1,1.8,2.5,1.8,4.1c0,2.3-1.1,4.3-2.9,5.5 c0.3,0.5,0.5,1.1,0.5,1.7c0.1,1.9-0.7,3.8-2.1,5c0.5,0.8,0.7,1.7,0.8,2.6c0,0,0,0,0,0c0.1,1.9-0.7,3.8-2.1,5 c0.5,0.8,0.7,1.7,0.8,2.6c0.1,1.7-0.5,3.4-1.6,4.6C86.5,82.3,85,83,83.5,83l-16.9,0.4C66.5,83.4,66.4,83.4,66.2,83.4z"></path> </g> <g> <g> <path class="st0" d="M48.3,83.4h-7.7c-2.8,0-5.1-2.3-5.1-5.1V52.8c0-2.8,2.3-5.1,5.1-5.1h7.7c2.8,0,5.1,2.3,5.1,5.1v25.4 C53.4,81.1,51.1,83.4,48.3,83.4z M40.5,51.5c-0.7,0-1.3,0.6-1.3,1.3v25.4c0,0.7,0.6,1.3,1.3,1.3h7.7c0.7,0,1.3-0.6,1.3-1.3V52.8 c0-0.7-0.6-1.3-1.3-1.3H40.5z"></path> </g> <g> <path class="st0" d="M62,108.4c-4.4,0-7-4-9.3-7.5c-0.2-0.3-0.5-0.7-0.7-1c-2-3-3.5-4.7-5.4-4.6c-1.8,0.1-3.7,0.4-5.5,0.8 c-5,0.9-10.1,1.9-14.3-2.3c-3.1-3.1-2.2-7.8-1.3-11.9c0.1-0.4,0.2-0.8,0.2-1.2c0.7-3.5,0.8-5.8-0.6-7.1c-1.3-1.2-2.9-2.3-4.4-3.3 c-4.2-2.9-8.5-5.8-8.5-11.7c0-4.4,4-7,7.5-9.3c0.3-0.2,0.7-0.5,1-0.7c3-2,4.7-3.5,4.6-5.4c-0.1-1.8-0.4-3.7-0.8-5.5 c-0.9-5-1.9-10.1,2.3-14.3c3.1-3.1,7.8-2.2,11.9-1.3c0.4,0.1,0.8,0.2,1.2,0.2c3.5,0.7,5.8,0.8,7.1-0.6c1.2-1.3,2.3-2.9,3.3-4.4 c2.9-4.2,5.8-8.5,11.7-8.5l0,0c0,0,0,0,0,0c4.4,0,7,4,9.3,7.5c0.2,0.3,0.5,0.7,0.7,1c2,3,3.5,4.7,5.4,4.6 c1.8-0.1,3.7-0.4,5.5-0.8c5-0.9,10.1-1.9,14.3,2.3c3.1,3.1,2.2,7.8,1.3,11.9c-0.1,0.4-0.2,0.8-0.2,1.2c-0.7,3.5-0.8,5.8,0.6,7.1 c1.3,1.2,2.9,2.3,4.4,3.3c4.2,2.9,8.5,5.8,8.5,11.7c0,4.4-4,7-7.5,9.3c-0.3,0.2-0.7,0.5-1,0.7c-3,2-4.7,3.5-4.6,5.4 c0.1,1.8,0.4,3.7,0.8,5.5c0.9,5,1.9,10.1-2.3,14.3c-3.1,3.1-7.8,2.2-11.9,1.3c-0.4-0.1-0.8-0.2-1.2-0.2c-3.5-0.7-5.8-0.8-7.1,0.6 c-1.2,1.3-2.3,2.9-3.3,4.4C70.8,104,67.9,108.3,62,108.4C62,108.4,62,108.4,62,108.4z M46.7,91.4c4.2,0,6.8,3.9,8.4,6.3 c0.2,0.3,0.5,0.7,0.7,1.1c2,3,3.8,5.7,6.1,5.7c0,0,0,0,0,0c3.7,0,5.6-2.6,8.5-6.8c1.1-1.6,2.3-3.3,3.6-4.8 c2.9-3.3,7.8-2.3,10.7-1.8c0.4,0.1,0.8,0.2,1.2,0.3c3.5,0.7,6.8,1.4,8.4-0.3c2.6-2.6,2.1-5.8,1.2-10.9c-0.4-1.9-0.7-3.9-0.8-6 c-0.2-4.4,3.8-7.2,6.3-8.8c0.3-0.2,0.7-0.5,1.1-0.7c3-2,5.8-3.8,5.7-6.1c0-3.7-2.6-5.6-6.8-8.5c-1.6-1.1-3.3-2.3-4.8-3.6 c-3.3-2.9-2.3-7.8-1.8-10.7c0.1-0.4,0.2-0.8,0.3-1.2c0.7-3.5,1.4-6.8-0.3-8.4c-2.6-2.6-5.8-2.1-10.9-1.2c-1.9,0.4-3.9,0.7-6,0.8 c-4.4,0.2-7.2-3.8-8.8-6.3c-0.2-0.3-0.5-0.7-0.7-1.1c-2-3-3.8-5.7-6.1-5.7c0,0,0,0,0,0c0,0,0,0,0,0c-3.7,0-5.6,2.6-8.5,6.8 c-1.1,1.6-2.3,3.3-3.6,4.8c-2.9,3.3-7.8,2.3-10.7,1.8c-0.4-0.1-0.8-0.2-1.2-0.3c-3.5-0.7-6.8-1.4-8.4,0.3 c-2.6,2.6-2.1,5.8-1.2,10.9c0.4,1.9,0.7,3.9,0.8,6c0.2,4.4-3.8,7.2-6.3,8.8c-0.3,0.2-0.7,0.5-1.1,0.7c-3,2-5.8,3.8-5.7,6.1 c0,3.7,2.6,5.6,6.8,8.5c1.6,1.1,3.3,2.3,4.8,3.6c3.3,2.9,2.3,7.8,1.8,10.7c-0.1,0.4-0.2,0.8-0.3,1.2c-0.7,3.5-1.4,6.8,0.3,8.4 c2.6,2.6,5.8,2.1,10.9,1.2c1.9-0.4,3.9-0.7,6-0.8C46.5,91.4,46.6,91.4,46.7,91.4z M62,10.8L62,10.8L62,10.8z"></path> </g> </g> </g> </svg> 