<?xml version="1.0" encoding="UTF-8"?> <svg xmlns="http://www.w3.org/2000/svg" xmlns:xlink="http://www.w3.org/1999/xlink" version="1.1" id="Layer_1" x="0px" y="0px" viewBox="0 0 120 120" style="enable-background:new 0 0 120 120;" xml:space="preserve"> <style type="text/css"> .st0{fill:#315DAA;} </style> <g> <path class="st0" d="M60,110.5c-4.7,0-11.4-2.3-18.2-6.3c-6.6-3.9-11.7-8.3-13.5-11.9c-1.3-2.6-2.1-9.7-3-17.9 c-0.1-0.6-0.1-1.2-0.2-1.7c-2.1,0.1-4-0.7-5.5-2.5c-4.1-4.9-4.3-16.3-2.8-20.4c0.5-1.4,1.3-2.2,2.4-2.4c1.1-0.2,2.1,0.5,2.3,1.6 c0.1,0.8-0.2,1.6-0.9,2c-0.9,1.9-1.2,11.6,1.7,16.1c1.1,1.7,2.2,1.8,3,1.6c0.2,0,0.3-0.1,0.4-0.1c0.1-0.1,0.2-0.1,0.3-0.2 c0.6-0.3,1.3-0.3,1.8,0s1,0.9,1,1.5c0.1,1.1,0.3,2.4,0.4,4c0.5,5,1.5,14.4,2.6,16.6c1.4,2.9,6.1,6.9,12,10.3 c6.2,3.6,12.2,5.8,16.2,5.8c4,0,10.1-2.2,16.2-5.8c5.8-3.4,10.5-7.4,12-10.3c1.1-2.2,2.1-11.6,2.6-16.6c0.2-1.6,0.3-2.9,0.4-4 c0.1-0.6,0.5-1.2,1-1.5c0.6-0.3,1.3-0.3,1.8,0c0.1,0,0.2,0.1,0.3,0.2c0.1,0,0.2,0,0.4,0.1c0.8,0.1,1.9,0.1,3-1.6 c2.9-4.5,2.6-14.1,1.7-16.1c-0.7-0.4-1.1-1.2-0.9-2c0.2-1.1,1.2-1.8,2.3-1.6c1.7,0.3,2.7,2.2,3.1,5.9c0.3,2.8,0.1,6-0.3,8.9 c-1.6,9.4-6.1,10.6-8.7,10.4c-0.1,0.5-0.1,1.1-0.2,1.7c-0.8,8.3-1.7,15.3-3,17.9c-1.8,3.6-6.8,8-13.5,11.9 C71.4,108.2,64.7,110.5,60,110.5z M24.8,70.4C24.8,70.4,24.8,70.4,24.8,70.4C24.8,70.4,24.8,70.4,24.8,70.4z M24.8,70.3 C24.8,70.3,24.8,70.3,24.8,70.3C24.8,70.3,24.8,70.3,24.8,70.3z M24.8,70.2c0,0,0,0.1,0,0.1C24.8,70.3,24.8,70.3,24.8,70.2z M100.1,51.3L100.1,51.3L100.1,51.3z M59.4,94.9c-7.8,0-14.2-5.3-14.2-11.8c0-1.1,0.9-2,2-2h24.4c1.1,0,2,0.9,2,2 C73.6,89.6,67.2,94.9,59.4,94.9z M49.5,85c1.1,3.4,5.2,6,9.9,6s8.8-2.5,9.9-6H49.5z M72,65.2c-1.1,0-2-0.9-2-2v-3.4 c0-1.1,0.9-2,2-2s2,0.9,2,2v3.4C73.9,64.3,73.1,65.2,72,65.2z M44.9,65.2c-1.1,0-2-0.9-2-2v-3.4c0-1.1,0.9-2,2-2c1.1,0,2,0.9,2,2 v3.4C46.8,64.3,45.9,65.2,44.9,65.2z M93.1,57.8C93.1,57.8,93.1,57.8,93.1,57.8L93.1,57.8C93.1,57.8,93.1,57.8,93.1,57.8 c-0.1,0-0.3,0-0.4,0c-0.8-0.2-1.2-0.6-1.4-1.1c-0.1-0.2-0.2-0.5-0.3-0.8c0-0.1,0-0.1,0-0.1c-0.1-0.5-0.2-1.1-0.4-1.8 c-0.9-4.9-3-16.2-9.9-18.7c-9.8,10.7-22.7,9-33.1,7.6c-6.7-0.9-12.6-1.7-15.8,1c-2,1.7-3.1,4.7-3.4,9.3c0.1,0.3,0.2,0.7,0.3,1.1 c0.1,0.4,0.2,0.6,0.2,0.8c0.2,0.7,0.1,1.4-0.4,2c-0.7,0.8-2,0.8-2.8,0.1c-0.4-0.4-0.5-0.6-0.8-1.9c-2-7.5-2.9-9.5-3.3-10 c-5.7-7.5-10.4-15.7,0.5-25.6C29.4,12.8,43,9,56.6,9.8c7,0.4,23.9,2.2,28.7,9.6c0.6,1,1,2,1.2,3.1c1.3-0.5,2.5-0.8,3.8-0.8 c2.4,0,4.7,0.9,6.6,2.5c4.3,3.7,6.5,11.4,2.1,18.4c-1.5,2.4-4.3,10.3-4.1,12.1c0.1,0.2,0.2,0.4,0.2,0.6c0,0.1,0,0.3,0,0.4 c0,0.5-0.2,1-0.6,1.4c-0.3,0.3-0.6,0.4-1,0.5C93.3,57.8,93.2,57.8,93.1,57.8z M28.4,54.1C28.4,54.1,28.4,54.1,28.4,54.1 C28.4,54.1,28.4,54.1,28.4,54.1z M28.3,54.1C28.3,54.1,28.3,54.1,28.3,54.1C28.3,54.1,28.3,54.1,28.3,54.1z M80,30.9 c0.1,0,0.3,0,0.4,0c7.4,1.6,10.8,9.2,12.6,15.5c0.9-2.5,2-4.8,2.7-5.9c2.4-3.8,2.8-9.8-1.3-13.3c-1.3-1.1-4.7-3.2-9,0.6 c-0.7,0.6-1.7,0.6-2.4,0.1c-0.7-0.5-1-1.5-0.7-2.3c0.6-1.6,0.5-2.8-0.2-4.1c-1.4-2.2-5-4.1-10.4-5.6c-5.8-1.5-12-2.1-15.2-2.3 c-12.6-0.8-25,2.6-31.6,8.6c-7.8,7.1-6.3,12,0,20.4c0.4,0.5,0.8,1.4,1.3,2.6c0.8-1.9,1.9-3.5,3.3-4.7c4.6-3.8,11.5-2.9,18.8-1.9 c10.2,1.4,21.9,2.9,30.4-7.2C78.9,31.1,79.4,30.9,80,30.9z"></path> </g> </svg> 