<?xml version="1.0" encoding="UTF-8"?> <svg xmlns="http://www.w3.org/2000/svg" xmlns:xlink="http://www.w3.org/1999/xlink" version="1.1" id="Layer_1" x="0px" y="0px" viewBox="0 0 119 119" style="enable-background:new 0 0 119 119;" xml:space="preserve"> <style type="text/css"> .st0{clip-path:url(#SVGID_00000142170697024074164530000003594322016628677564_);} .st1{fill:#315DAA;} </style> <g> <defs> <rect id="SVGID_1_" width="119" height="119"></rect> </defs> <clipPath id="SVGID_00000057838744732065639110000007408541266112362131_"> <use xlink:href="#SVGID_1_" style="overflow:visible;"></use> </clipPath> <g style="clip-path:url(#SVGID_00000057838744732065639110000007408541266112362131_);"> <path class="st1" d="M53.4,119C23.9,119,0,95.1,0,65.6s23.9-53.4,53.4-53.4c10.9,0,21.6,3.3,30.6,9.6c0.2,0.1,0.4,0.3,0.6,0.6 c0.1,0.2,0.2,0.5,0.3,0.7c0,0.3,0,0.5,0,0.8c-0.1,0.3-0.2,0.5-0.3,0.7c-0.2,0.2-0.3,0.4-0.6,0.5c-0.2,0.1-0.5,0.2-0.7,0.3 c-0.3,0-0.5,0-0.8,0c-0.3-0.1-0.5-0.2-0.7-0.3c-8.3-5.8-18.2-8.9-28.3-8.9C26.2,16.2,4,38.4,4,65.6C4,92.9,26.2,115,53.4,115 c27.2,0,49.4-22.2,49.4-49.4c0-10.1-3.1-20-8.9-28.3c-0.2-0.2-0.3-0.5-0.3-0.7c-0.1-0.3-0.1-0.5,0-0.8c0-0.3,0.1-0.5,0.3-0.7 c0.1-0.2,0.3-0.4,0.5-0.6c0.2-0.2,0.5-0.3,0.7-0.3c0.3-0.1,0.5-0.1,0.8,0c0.3,0,0.5,0.1,0.7,0.3c0.2,0.1,0.4,0.3,0.6,0.6 c6.3,9,9.6,19.6,9.6,30.6C106.8,95.1,82.8,119,53.4,119z"></path> <path class="st1" d="M53.4,100.8c-5.4,0-10.7-1.2-15.5-3.6s-9-5.8-12.3-10.1c-3.3-4.3-5.6-9.2-6.6-14.5 c-1.1-5.3-0.9-10.7,0.4-15.9c1.4-5.2,3.9-10,7.4-14.1c3.5-4.1,7.9-7.3,12.9-9.4c5-2.1,10.3-3,15.7-2.7c5.4,0.3,10.6,1.8,15.3,4.5 c0.2,0.1,0.4,0.3,0.6,0.5c0.2,0.2,0.3,0.4,0.4,0.7c0.1,0.3,0.1,0.5,0.1,0.8c0,0.3-0.1,0.5-0.2,0.7c-0.1,0.2-0.3,0.4-0.5,0.6 c-0.2,0.2-0.4,0.3-0.7,0.4c-0.3,0.1-0.5,0.1-0.8,0.1c-0.3,0-0.5-0.1-0.7-0.2c-6.6-3.7-14.2-4.9-21.6-3.3 c-7.4,1.5-13.9,5.7-18.5,11.7c-4.5,6-6.8,13.4-6.3,21c0.5,7.5,3.7,14.6,9.1,19.9c5.3,5.3,12.4,8.5,19.9,9.1c7.5,0.5,15-1.7,21-6.3 c6-4.5,10.2-11.1,11.7-18.5c1.5-7.4,0.4-15-3.3-21.6c-0.2-0.5-0.3-1-0.2-1.5c0.1-0.5,0.5-0.9,0.9-1.2c0.5-0.3,1-0.3,1.5-0.2 c0.5,0.1,0.9,0.5,1.2,0.9c3,5.4,4.6,11.4,4.5,17.5c-0.1,6.1-1.7,12.2-4.8,17.4c-3.1,5.3-7.5,9.7-12.9,12.7 C65.5,99.2,59.5,100.8,53.4,100.8L53.4,100.8z"></path> <path class="st1" d="M53.4,82.6c-2.3,0-4.6-0.5-6.8-1.4c-2.1-0.9-4.1-2.3-5.6-4c-1.6-1.7-2.8-3.7-3.6-5.9 c-0.8-2.2-1.1-4.5-0.9-6.9c0.2-2.3,0.8-4.6,1.9-6.7c1.1-2.1,2.6-3.9,4.4-5.3c1.8-1.5,3.9-2.5,6.2-3.2c2.2-0.6,4.6-0.8,6.9-0.4 c0.3,0,0.5,0.1,0.7,0.3c0.2,0.1,0.4,0.3,0.6,0.5c0.2,0.2,0.3,0.4,0.3,0.7c0.1,0.3,0.1,0.5,0,0.8c0,0.3-0.1,0.5-0.3,0.7 c-0.1,0.2-0.3,0.4-0.5,0.6c-0.2,0.2-0.5,0.3-0.7,0.3c-0.3,0.1-0.5,0.1-0.8,0c-0.6-0.1-1.2-0.1-1.8-0.1c-2.6,0-5.1,0.8-7.2,2.2 c-2.1,1.4-3.8,3.5-4.8,5.8c-1,2.4-1.2,5-0.7,7.5c0.5,2.5,1.7,4.8,3.6,6.7c1.8,1.8,4.1,3.1,6.7,3.6c2.5,0.5,5.1,0.2,7.5-0.7 c2.4-1,4.4-2.6,5.8-4.8c1.4-2.1,2.2-4.6,2.2-7.2c0-0.6,0-1.2-0.1-1.8c-0.1-0.5,0.1-1,0.4-1.5c0.3-0.4,0.8-0.7,1.3-0.8 c0.5-0.1,1,0.1,1.5,0.4c0.4,0.3,0.7,0.8,0.8,1.3c0.1,0.8,0.2,1.6,0.2,2.4c0,4.5-1.8,8.8-5,12C62.2,80.8,57.9,82.6,53.4,82.6z"></path> <path class="st1" d="M106.1,14.9c-0.4,0-0.8-0.1-1.1-0.3c-0.3-0.2-0.6-0.5-0.7-0.9c-0.2-0.4-0.2-0.8-0.1-1.1 c0.1-0.4,0.3-0.7,0.5-1l7.5-7.5c0.4-0.4,0.9-0.6,1.4-0.6c0.5,0,1,0.2,1.4,0.6s0.6,0.9,0.6,1.4s-0.2,1-0.6,1.4l-7.5,7.5 c-0.2,0.2-0.4,0.3-0.6,0.4C106.6,14.9,106.3,14.9,106.1,14.9z"></path> <path class="st1" d="M53.4,67.6c-0.4,0-0.8-0.1-1.1-0.3c-0.3-0.2-0.6-0.5-0.7-0.9s-0.2-0.8-0.1-1.1s0.3-0.7,0.5-1l37-37 c0.4-0.4,0.9-0.6,1.4-0.6c0.5,0,1,0.2,1.4,0.6c0.4,0.4,0.6,0.9,0.6,1.4c0,0.5-0.2,1-0.6,1.4l-37,37c-0.2,0.2-0.4,0.3-0.6,0.4 C53.9,67.6,53.6,67.6,53.4,67.6z"></path> <path class="st1" d="M90.4,30.6c-0.5,0-1-0.2-1.4-0.5c-0.4-0.4-0.6-0.8-0.6-1.3l-0.5-10.1c0-0.4,0-0.9,0.1-1.3 c0.1-0.4,0.4-0.8,0.7-1.1l13.4-15.4l0,0c0.3-0.3,0.8-0.6,1.3-0.7c0.5-0.1,1-0.1,1.4,0.1c0.5,0.2,0.9,0.4,1.2,0.8 c0.3,0.4,0.5,0.8,0.6,1.3l1.4,10.4c0,0.3,0,0.5,0,0.8c-0.1,0.3-0.2,0.5-0.3,0.7c-0.2,0.2-0.4,0.4-0.6,0.5 c-0.2,0.1-0.5,0.2-0.7,0.3c-0.3,0-0.5,0-0.8,0c-0.3-0.1-0.5-0.2-0.7-0.3c-0.4-0.3-0.7-0.8-0.8-1.3l-1-7.4L91.9,18.6l0.5,9.9 c0,0.5-0.2,1-0.5,1.4c-0.4,0.4-0.8,0.6-1.4,0.7L90.4,30.6z"></path> <path class="st1" d="M100.7,31.1c-0.1,0-0.2,0-0.3,0l-10.1-0.5c-0.5,0-1-0.3-1.4-0.7c-0.4-0.4-0.5-0.9-0.5-1.4 c0-0.5,0.3-1,0.7-1.4c0.4-0.4,0.9-0.5,1.4-0.5l9.9,0.5l12.8-11.2l-7.4-1c-0.3,0-0.5-0.1-0.7-0.2c-0.2-0.1-0.4-0.3-0.6-0.5 c-0.2-0.2-0.3-0.4-0.3-0.7c-0.1-0.3-0.1-0.5,0-0.8c0-0.3,0.1-0.5,0.3-0.7c0.1-0.2,0.3-0.4,0.5-0.6c0.2-0.2,0.5-0.3,0.7-0.3 c0.3-0.1,0.5-0.1,0.8,0l10.4,1.4c0.5,0.1,0.9,0.3,1.3,0.6c0.4,0.3,0.7,0.7,0.8,1.2c0.2,0.5,0.2,1,0.1,1.4 c-0.1,0.5-0.4,0.9-0.7,1.3l-0.1,0.1l-15.3,13.3C102.2,30.8,101.5,31.1,100.7,31.1z"></path> </g> </g> </svg> 