<?xml version="1.0" encoding="UTF-8"?> <svg xmlns="http://www.w3.org/2000/svg" xmlns:xlink="http://www.w3.org/1999/xlink" version="1.1" id="Layer_1" x="0px" y="0px" viewBox="0 0 120 120" style="enable-background:new 0 0 120 120;" xml:space="preserve"> <style type="text/css"> .st0{fill:#315DAA;} .st1{fill:#FFFFFF;} </style> <g> <path class="st0" d="M87.1,108.9c-0.4,0-0.8-0.1-1.2-0.4l-9.4-7.8l-9.4,7.8c-0.6,0.5-1.3,0.6-2,0.2c-0.7-0.3-1.1-1-1.1-1.7V86.8 c0-1,0.8-1.9,1.9-1.9s1.9,0.8,1.9,1.9v16.3l7.6-6.2c0.7-0.6,1.7-0.6,2.4,0l7.6,6.2V86.8c0-1,0.8-1.9,1.9-1.9s1.9,0.8,1.9,1.9v20.3 c0,0.7-0.4,1.4-1.1,1.7C87.6,108.9,87.3,108.9,87.1,108.9z"></path> <path class="st0" d="M76.5,86.9c-2.3,0-3.5-1.9-4.4-3.3c-0.3-0.5-1-1.5-1.3-1.6c-0.6,0-1.2,0.2-1.9,0.3c-2,0.4-4.4,0.8-6.4-1.2 c-1.6-1.6-1.1-3.8-0.8-5.5c0.1-0.6,0.3-1.7,0.2-2c-0.4-0.4-1-0.8-1.5-1.1c-1.6-1.1-3.7-2.5-3.7-5.3c0-2.3,1.9-3.5,3.3-4.5 c0.5-0.3,1.5-1,1.6-1.3c0-0.6-0.2-1.2-0.3-1.9c-0.4-2-0.8-4.4,1.2-6.4c1.6-1.6,3.8-1.1,5.5-0.8c0.6,0.1,1.7,0.3,2,0.2 c0.4-0.4,0.8-1,1.1-1.5c1.1-1.6,2.5-3.7,5.3-3.7l0,0c2.3,0,3.5,1.9,4.4,3.3c0.3,0.5,1,1.5,1.3,1.6c0.6,0,1.2-0.2,1.9-0.3 c2-0.4,4.4-0.8,6.4,1.2c1.6,1.6,1.1,3.8,0.8,5.5c-0.1,0.6-0.3,1.7-0.2,2c0.4,0.4,1,0.8,1.5,1.1c1.6,1.1,3.7,2.5,3.7,5.3 c0,2.3-1.9,3.5-3.3,4.5c-0.5,0.3-1.5,1-1.6,1.3c0,0.6,0.2,1.2,0.3,1.9c0.4,2,0.8,4.4-1.2,6.4c-1.6,1.6-3.9,1.1-5.5,0.8 c-0.6-0.1-1.7-0.3-2-0.2c-0.4,0.4-0.8,1-1.1,1.5C80.7,84.9,79.3,86.9,76.5,86.9L76.5,86.9z"></path> <path class="st1" d="M70.8,78.3c2.2,0,3.4,1.9,4.4,3.3c0.4,0.5,1,1.5,1.3,1.6c0.8,0,1.2-0.6,2.3-2.1c0.4-0.6,0.9-1.3,1.4-1.9 c1.6-1.7,3.9-1.3,5.5-0.9c0.6,0.1,1.8,0.4,2.1,0.2c0.5-0.5,0.5-1.3,0.1-3.1c-0.1-0.7-0.3-1.5-0.3-2.4c-0.1-2.3,1.8-3.6,3.3-4.6 c0.5-0.4,1.5-1,1.6-1.3c0-0.8-0.6-1.2-2.1-2.3c-0.6-0.4-1.3-0.9-1.9-1.4c-1.7-1.6-1.3-3.9-0.9-5.5c0.1-0.6,0.4-1.8,0.2-2.1 c-0.5-0.5-1.3-0.5-3.1-0.1C84,55.8,83.2,56,82.3,56c-2.3,0.1-3.6-1.8-4.6-3.3c-0.4-0.5-1-1.5-1.3-1.6c-0.8,0-1.2,0.6-2.3,2.1 c-0.4,0.6-0.9,1.3-1.4,1.9c-1.6,1.7-3.9,1.3-5.5,0.9c-0.6-0.1-1.8-0.4-2.1-0.2c-0.5,0.5-0.5,1.3-0.1,3c0.1,0.7,0.3,1.5,0.3,2.4 c0.1,2.3-1.8,3.6-3.3,4.6c-0.5,0.4-1.5,1-1.6,1.3c0,0.8,0.6,1.2,2.1,2.3c0.6,0.4,1.3,0.9,1.9,1.4c1.7,1.6,1.3,3.9,0.9,5.5 c-0.1,0.6-0.4,1.8-0.2,2.1c0.5,0.5,1.3,0.5,3,0.1c0.7-0.1,1.5-0.3,2.4-0.3C70.6,78.3,70.7,78.3,70.8,78.3z"></path> <path class="st0" d="M56.7,83.1L56.7,83.1l-38.2-0.3c-2.8,0-5.1-2.3-5.1-5.2V21.3c0-2.8,2.3-5.2,5.2-5.2h57.3c1,0,1.9,0.8,1.9,1.9 s-0.8,1.9-1.9,1.9H18.6c-0.8,0-1.4,0.6-1.4,1.4v56.4c0,0.8,0.7,1.4,1.4,1.4l38.2,0.3c1,0,1.9,0.8,1.9,1.9 C58.6,82.2,57.8,83.1,56.7,83.1z"></path> <path class="st0" d="M97.4,83c-1,0-1.8-0.8-1.9-1.8c0-1,0.8-1.9,1.8-1.9l4-0.2c0.8,0,1.5-0.7,1.5-1.4V46.8c0-1,0.8-1.9,1.9-1.9 c1,0,1.9,0.8,1.9,1.9v30.8c0,2.7-2.3,5-5.1,5.2L97.4,83L97.4,83z"></path> <circle class="st0" cx="76.5" cy="67.2" r="9.6"></circle> <circle class="st0" cx="76.5" cy="67.2" r="5.8"></circle> <path class="st0" d="M49.4,55H27.2c-1,0-1.9-0.8-1.9-1.9s0.8-1.9,1.9-1.9h22.2c1,0,1.9,0.8,1.9,1.9S50.4,55,49.4,55z"></path> <path class="st0" d="M71.7,44.4H26.8c-1,0-1.9-0.8-1.9-1.9s0.8-1.9,1.9-1.9h44.9c1,0,1.9,0.8,1.9,1.9S72.7,44.4,71.7,44.4z"></path> <path class="st0" d="M104.7,41.2H86.6c-2.8,0-5.2-2.3-5.2-5.2V18c0-0.8,0.5-1.4,1.2-1.7c0.7-0.3,1.5-0.1,2,0.4L106,38.1 c0.5,0.5,0.7,1.3,0.4,2C106.1,40.8,105.5,41.2,104.7,41.2z"></path> <path class="st1" d="M85.2,22.5v13.6c0,0.8,0.6,1.4,1.4,1.4h13.6L85.2,22.5z"></path> <path class="st0" d="M71.6,34.7H27.2c-1,0-1.9-0.8-1.9-1.9s0.8-1.9,1.9-1.9h44.4c1,0,1.9,0.8,1.9,1.9 C73.5,33.9,72.6,34.7,71.6,34.7z"></path> </g> </svg> 