<?xml version="1.0" encoding="UTF-8"?> <svg xmlns="http://www.w3.org/2000/svg" xmlns:xlink="http://www.w3.org/1999/xlink" version="1.1" id="Layer_1" x="0px" y="0px" viewBox="0 0 488.1 193.39" style="enable-background:new 0 0 488.1 193.39;" xml:space="preserve"> <style type="text/css"> .st0{fill:#315DAA;} .st1{fill:#627084;} </style> <path class="st0" d="M190.31,67c0,8.19,0.26,16.24,0.66,20.5h-7.2c0.39-4.52,0.65-13.16,0.65-21.48v-3.14 c0-8.51-0.26-17.09-0.65-21.54h7.2c-0.39,4.26-0.66,12.25-0.66,20.1c2.42,0.13,4.32,0.2,7.6,0.2c7.86,0,11.85-0.07,14.93-0.26 c0-7.99-0.26-15.85-0.66-20.04h7.2c-0.39,4.52-0.66,13.16-0.66,21.48v3.14c0,8.51,0.26,17.09,0.66,21.54h-7.2 c0.39-4.32,0.66-12.51,0.66-20.56c-2.42-0.13-4.32-0.2-7.6-0.2C197.38,66.74,193.39,66.81,190.31,67z"></path> <path class="st0" d="M265.15,87.7c-6.09-0.13-13.29-0.2-18.14-0.2H236.6c0.39-4.52,0.66-13.16,0.66-21.48v-3.14 c0-8.51-0.26-17.09-0.66-21.67c4.65,0.07,7.99,0.13,12.11,0.13c5.76,0,12.64-0.13,15.65-0.26l-0.78,6.09 c-0.26,0.13-1.97,0.26-2.23,0.2c-2.42-0.52-7.6-0.92-12.38-0.92c-1.84,0-3.73,0.07-5.5,0.13c-0.2,4.19-0.33,9.43-0.33,14.67 c7.01-0.07,12.9-0.33,15.39-0.59l-0.66,6.22c-2.68-0.26-8.32-0.52-14.73-0.59c0,5.76,0.13,11.53,0.33,15.98 c2.1,0.07,4.45,0.13,6.68,0.13c5.37,0,11.2-0.33,13.56-0.85c0.26-0.07,2.03,0.13,2.22,0.2L265.15,87.7z"></path> <path class="st0" d="M286.15,76.04c-1.96,5.89-3.34,9.95-3.73,11.46h-6.61c-0.06-0.26-0.06-2.36,0-2.55 c3.47-7.27,10.48-24.75,17.75-43.48l5.89-0.26c7.2,18.99,14.14,36.47,17.55,43.74c0.06,0.2,0.06,2.29,0,2.55h-6.88 c-0.46-1.51-1.83-5.63-3.93-11.53c-1.9-0.13-3.6-0.13-6.29-0.13C293.03,75.85,289.1,75.91,286.15,76.04z M304.29,70.74 c-2.29-6.35-5.11-14.14-8.32-22.85c-3.14,8.71-5.83,16.57-8.05,22.92c1.31,0.07,2.75,0.07,4.65,0.07 C298,70.87,301.61,70.8,304.29,70.74z"></path> <path class="st0" d="M347.92,69.3c5.83,6.74,11.39,12.83,14.34,15.65c0.07,0.26,0.07,2.29,0,2.55l-7.01,0.2 c-2.22-3.14-7.53-9.62-13.55-16.57c-1.77,0-4.06-0.2-6.75-0.39c0.13,6.81,0.33,13.16,0.66,16.76h-7.2 c0.39-4.52,0.66-13.16,0.66-21.48v-3.14c0-8.51-0.26-17.09-0.66-21.54c4.32,0,15.19-0.85,15.85-0.85c8.91,0,14.86,5.63,14.86,14.08 c0,5.3-2.29,9.56-6.74,12.44C351.06,67.86,349.42,68.64,347.92,69.3z M352.5,55.81c0-6.35-3.86-10.15-10.41-10.15 c-1.44,0-4.12,0.13-6.81,0.33c-0.2,4.65-0.33,10.81-0.33,16.83v2.75c2.62,0.2,5.3,0.33,6.94,0.33 C348.57,65.89,352.5,62.16,352.5,55.81z"></path> <path class="st0" d="M375.02,87.5c0.39-4.52,0.66-13.16,0.66-21.48v-3.14c0-8.51-0.26-17.09-0.66-21.54h7.2 c-0.39,4.52-0.66,13.16-0.66,21.48v3.14c0,8.51,0.26,17.09,0.66,21.54H375.02z"></path> <path class="st0" d="M426.09,87.5c-1.11-2.55-8.45-15.06-21.87-38.11v16.57c0,8.51,0.26,17.09,0.66,21.54h-6.62 c0.39-4.52,0.66-13.16,0.66-21.48v-3.14c0-8.51-0.26-17.09-0.66-21.54h8.45c1.64,3.8,9.23,16.7,21.74,38.31V62.88 c0-8.51-0.26-17.09-0.66-21.54h6.61c-0.39,4.52-0.65,13.16-0.65,21.48v3.14c0,8.51,0.26,17.09,0.65,21.54H426.09z"></path> <path class="st0" d="M470.23,88.81c-13.29,0-21.61-9.3-21.61-22.98c0-8.97,3.6-16.63,9.63-20.76c4.45-3.01,11.59-5.04,12.31-5.04 c4.65,0,10.94,1.57,15.59,3.99l-2.29,6.16c-0.26,0.07-1.24,0.07-1.51,0l-9.76-4.39c-0.85-0.13-1.83-0.2-2.68-0.2 c-8.97,0-14.8,6.88-14.8,18.6c0,11.85,5.89,18.86,15.78,18.86c3.67,0,7.4-0.92,10.48-2.62c0.2-1.9,0.33-4.39,0.33-6.94 c0-1.24,0-2.42-0.07-3.47c-4.19,0-8.64,0.13-10.41,0.33l0.33-5.76c2.1,0.13,6.48,0.26,9.89,0.26c2.36,0,5.04-0.07,6.55-0.13 c-0.2,1.64-0.33,5.24-0.33,8.91c0,4.06,0.2,7.01,0.46,8.25C480.7,87.31,470.94,88.81,470.23,88.81z"></path> <path class="st0" d="M199.08,122.79c-0.38,0.67-0.99,1.33-1.81,1.95c-0.91-0.63-1.87-1.34-2.84-2.12c-1.45,1.4-3.37,2.12-5.4,2.12 c-3.28,0-5.54-1.82-5.54-4.66c0-2.25,1.52-4.1,3.77-5.07c-1.06-1.69-1.72-3.39-1.72-4.98c0-2.76,2.01-4.92,4.96-4.92 c2.68,0,4.43,1.75,4.43,4.28c0,2.49-1.74,4.46-4.37,5.39c1.02,1.3,2.28,2.64,3.62,3.9c0.43-1.15,0.6-2.66,0.36-4.58 c0.85,0.14,1.75,0.54,2.66,1.13c0,2.04-0.43,3.76-1.16,5.13C197.08,121.24,198.11,122.07,199.08,122.79z M192.63,121.09 c-1.68-1.5-3.27-3.15-4.52-4.84c-1.23,0.85-1.94,2-1.94,3.28c0,1.68,1.23,2.8,3.14,2.8C190.37,122.34,191.62,121.99,192.63,121.09z M188.16,109.67c0,1.15,0.58,2.49,1.52,3.91c1.66-0.81,2.63-2.18,2.63-3.7c0-1.35-0.82-2.37-2.14-2.37 C189,107.5,188.16,108.28,188.16,109.67z"></path> <path class="st0" d="M213.02,115.51c0-6.06,4.13-10.4,9.63-10.4c2.69,0,4.49,0.99,5.35,1.67c-0.04,0.83-0.32,2.34-0.82,3.57 c-0.53-1.03-2.02-2.61-4.69-2.61c-3.81,0-6.61,3.16-6.61,7.39c0,4.25,2.83,6.99,6.66,6.99c2.51,0,4.75-1.23,5.72-2.13 c0.08,0.8-0.12,1.71-0.36,2.71c-1.03,0.84-3.23,2.05-6.14,2.05C216.66,124.74,213.02,121.09,213.02,115.51z"></path> <path class="st0" d="M234.15,115.46c0-5.76,3.94-10.35,9.41-10.35c4.97,0,8.5,3.78,8.5,9.24c0,5.77-3.96,10.39-9.45,10.39 C237.64,124.74,234.15,120.91,234.15,115.46z M249.16,114.81c0-3.73-2.19-7.05-6-7.02c-3.81,0.03-6.1,3.41-6.1,7.26 c0,3.82,2.28,7.01,5.97,7.01C246.84,122.06,249.16,118.64,249.16,114.81z"></path> <path class="st0" d="M276.76,124.55l-1.53-15.05l-5.56,14.92c-0.72,0.13-1.42,0.19-2.13,0.18l-5.53-15.04l-1.75,14.99 c-0.89-0.1-1.77-0.16-2.66-0.19l2.55-18.84c1.01-0.06,2.01-0.17,3.01-0.31l5.5,15.26l5.61-15.17c1.02,0.11,2.04,0.17,3.06,0.2 l2.32,18.81C278.81,124.47,277.83,124.55,276.76,124.55z"></path> <path class="st0" d="M305.33,124.55l-1.53-15.05l-5.56,14.92c-0.72,0.13-1.42,0.19-2.13,0.18l-5.53-15.04l-1.75,14.99 c-0.89-0.1-1.77-0.16-2.66-0.19l2.55-18.84c1.01-0.06,2.01-0.17,3.01-0.31l5.5,15.26l5.61-15.17c1.02,0.11,2.04,0.17,3.06,0.2 l2.32,18.81C307.37,124.47,306.4,124.55,305.33,124.55z"></path> <path class="st0" d="M330.4,105.38v11.27c0,4.95-2.72,8.09-7.45,8.09c-4.82,0-7.75-3.14-7.75-8.09v-11.21 c1.44,0,2.47-0.03,2.85-0.06v11.27c0,3.34,1.83,5.47,4.91,5.47c3.12,0,4.82-2.12,4.82-5.47v-11.21 C329.11,105.43,330.06,105.4,330.4,105.38z"></path> <path class="st0" d="M354.14,105.38v19.03l-2.13,0l-10.86-13.87v13.87c-0.94,0.1-1.75,0.12-2.63,0.04v-19.01 c0.7,0,1.4-0.04,2.08-0.14l10.91,13.9v-13.77C352.85,105.43,353.8,105.4,354.14,105.38z"></path> <path class="st0" d="M366.42,120.34v4.07c-1.02,0.11-1.9,0.12-2.85,0.04v-4.11v-10.83v-4.07c1.44,0,2.47-0.03,2.85-0.06v4.13V120.34 z"></path> <path class="st0" d="M373.36,115.51c0-6.06,4.13-10.4,9.63-10.4c2.69,0,4.49,0.99,5.35,1.67c-0.04,0.83-0.32,2.34-0.82,3.57 c-0.53-1.03-2.02-2.61-4.69-2.61c-3.81,0-6.61,3.16-6.61,7.39c0,4.25,2.83,6.99,6.66,6.99c2.51,0,4.75-1.23,5.72-2.13 c0.08,0.8-0.12,1.71-0.36,2.71c-1.03,0.84-3.23,2.05-6.14,2.05C377,124.74,373.36,121.09,373.36,115.51z"></path> <path class="st0" d="M405.89,119.27h-7.86l-1.95,5.2l-2.83-0.07l7.55-18.98c0.84,0,1.59-0.03,2.43-0.15l7.8,19.13l-3.08,0.18 L405.89,119.27z M404.94,116.8l-3.03-7.87l-2.96,7.87H404.94z"></path> <path class="st0" d="M429.22,108.06h-6.37v16.35c-1.02,0.11-1.9,0.12-2.85,0.04v-16.39h-6.52c0.05-0.88,0.21-1.78,0.14-2.63h15.75 C429.43,106.28,429.27,107.18,429.22,108.06z"></path> <path class="st0" d="M439.08,120.34v4.07c-1.02,0.11-1.9,0.12-2.85,0.04v-4.11v-10.83v-4.07c1.44,0,2.47-0.03,2.85-0.06v4.13V120.34 z"></path> <path class="st0" d="M445.89,115.46c0-5.76,3.94-10.35,9.41-10.35c4.97,0,8.5,3.78,8.5,9.24c0,5.77-3.96,10.39-9.45,10.39 C449.38,124.74,445.89,120.91,445.89,115.46z M460.9,114.81c0-3.73-2.19-7.05-6-7.02c-3.81,0.03-6.1,3.41-6.1,7.26 c0,3.82,2.28,7.01,5.97,7.01C458.58,122.06,460.9,118.64,460.9,114.81z"></path> <path class="st0" d="M486.87,105.38v19.03l-2.13,0l-10.86-13.87v13.87c-0.94,0.1-1.75,0.12-2.63,0.04v-19.01 c0.7,0,1.4-0.04,2.08-0.14l10.91,13.9v-13.77C485.57,105.43,486.52,105.4,486.87,105.38z"></path> <path class="st0" d="M224.94,190.91c-13.36,0-21.67-9.17-21.67-22.92c0-9.03,3.6-16.76,9.62-20.76c4.65-3.08,12.18-5.04,12.97-5.04 c3.99,0,9.3,1.37,13.36,3.47l-2.29,6.16c-0.26,0.06-1.24,0.06-1.51,0l-8.84-4c-0.52-0.06-1.05-0.06-1.64-0.06 c-9.17,0-15.13,6.87-15.13,18.53c0,11.85,6.16,18.79,16.57,18.79c3.99,0,7.99-1.05,12.11-3.27l1.77,4.59 C234.76,189.47,230.11,190.91,224.94,190.91z"></path> <path class="st0" d="M282.97,189.86c-6.09-0.13-13.29-0.19-18.14-0.19h-10.41c0.39-4.52,0.66-13.16,0.66-21.48v-3.14 c0-8.51-0.26-17.09-0.66-21.67c4.65,0.07,7.99,0.13,12.11,0.13c5.76,0,12.64-0.13,15.65-0.26l-0.78,6.09 c-0.26,0.13-1.97,0.26-2.23,0.19c-2.42-0.52-7.6-0.92-12.38-0.92c-1.84,0-3.73,0.07-5.5,0.13c-0.2,4.19-0.33,9.43-0.33,14.67 c7.01-0.07,12.9-0.33,15.39-0.59l-0.66,6.22c-2.68-0.26-8.32-0.52-14.73-0.59c0,5.76,0.13,11.53,0.33,15.98 c2.1,0.06,4.45,0.13,6.68,0.13c5.37,0,11.2-0.33,13.56-0.85c0.26-0.06,2.03,0.13,2.22,0.2L282.97,189.86z"></path> <path class="st0" d="M325.52,189.67c-1.11-2.56-8.45-15.06-21.87-38.11v16.57c0,8.51,0.26,17.09,0.66,21.54h-6.62 c0.39-4.52,0.66-13.16,0.66-21.48v-3.14c0-8.51-0.26-17.09-0.66-21.54h8.45c1.64,3.8,9.23,16.7,21.74,38.31v-16.76 c0-8.51-0.26-17.09-0.66-21.54h6.61c-0.39,4.52-0.65,13.16-0.65,21.48v3.14c0,8.51,0.26,17.09,0.65,21.54H325.52z"></path> <path class="st0" d="M360.9,189.67c0.39-4.52,0.66-13.16,0.66-21.48v-3.14c0-5.96-0.13-11.92-0.33-16.5 c-5.17,0.06-10.48,0.46-12.9,0.92c-0.26,0.06-1.96-0.07-2.22-0.2l0.26-6.02c3.01,0.13,10.21,0.26,17.09,0.26h2.22 c6.88,0,14.08-0.13,17.09-0.26l-0.66,6.09c-0.26,0.13-1.96,0.26-2.22,0.19c-2.16-0.46-7.07-0.85-12.11-0.98 c-0.2,4.65-0.33,10.61-0.33,16.44v3.14c0,8.51,0.26,17.09,0.66,21.54H360.9z"></path> <path class="st0" d="M422.2,189.86c-6.09-0.13-13.29-0.19-18.14-0.19h-10.41c0.39-4.52,0.66-13.16,0.66-21.48v-3.14 c0-8.51-0.26-17.09-0.66-21.67c4.65,0.07,7.99,0.13,12.11,0.13c5.76,0,12.64-0.13,15.65-0.26l-0.78,6.09 c-0.26,0.13-1.97,0.26-2.23,0.19c-2.42-0.52-7.6-0.92-12.38-0.92c-1.84,0-3.73,0.07-5.5,0.13c-0.2,4.19-0.33,9.43-0.33,14.67 c7.01-0.07,12.9-0.33,15.39-0.59l-0.66,6.22c-2.68-0.26-8.32-0.52-14.73-0.59c0,5.76,0.13,11.53,0.33,15.98 c2.1,0.06,4.45,0.13,6.68,0.13c5.37,0,11.2-0.33,13.56-0.85c0.26-0.06,2.03,0.13,2.22,0.2L422.2,189.86z"></path> <path class="st0" d="M453.78,171.46c5.83,6.75,11.39,12.83,14.34,15.65c0.07,0.26,0.07,2.29,0,2.56l-7.01,0.19 c-2.22-3.14-7.53-9.62-13.55-16.57c-1.77,0-4.06-0.2-6.75-0.39c0.13,6.81,0.33,13.16,0.66,16.76h-7.2 c0.39-4.52,0.66-13.16,0.66-21.48v-3.14c0-8.51-0.26-17.09-0.66-21.54c4.32,0,15.19-0.85,15.85-0.85c8.91,0,14.86,5.63,14.86,14.08 c0,5.3-2.29,9.56-6.74,12.44C456.92,170.02,455.29,170.8,453.78,171.46z M458.36,157.97c0-6.35-3.86-10.15-10.41-10.15 c-1.44,0-4.12,0.13-6.81,0.33c-0.2,4.65-0.33,10.81-0.33,16.83v2.75c2.62,0.2,5.3,0.33,6.94,0.33 C454.43,168.06,458.36,164.32,458.36,157.97z"></path> <g> <path class="st0" d="M251.91,4.66v19.56l-2.19,0L238.56,9.96v14.25c-0.96,0.1-1.8,0.12-2.7,0.04V4.72c0.72,0,1.44-0.04,2.14-0.14 l11.21,14.28V4.72C250.58,4.72,251.55,4.68,251.91,4.66z"></path> <path class="st0" d="M271.66,18.94h-8.08l-2.01,5.35l-2.91-0.07l7.75-19.5c0.86,0,1.64-0.03,2.5-0.15l8.01,19.65l-3.17,0.19 L271.66,18.94z M270.69,16.4l-3.11-8.09l-3.04,8.09H270.69z"></path> <path class="st0" d="M282.1,23.6c-0.43-1.1-0.53-2.21-0.44-3.31c1.06,0.68,3.1,1.57,5.26,1.57c2.33,0,3.9-1.02,3.9-2.89 c0-2.02-1.79-2.84-3.94-3.8c-2.15-0.96-4.64-2.08-4.64-5.36c0-3.21,2.58-5.43,6.61-5.43c1.87,0,3.42,0.49,4.17,0.85 c-0.03,0.64-0.23,1.8-0.6,2.74c-0.66-0.45-1.83-1.05-3.45-1.05c-2.15,0-3.81,1.04-3.81,2.64c0,1.57,1.57,2.31,3.57,3.25 c2.18,1.02,5,2.34,5,6.05c0,3.63-2.7,5.68-6.79,5.68C285.13,24.55,283.23,24.15,282.1,23.6z"></path> <path class="st0" d="M317.43,4.66v15.37v4.19c-1.05,0.11-1.96,0.13-2.93,0.04v-8.58h-10.35v8.54c-1.05,0.11-1.95,0.13-2.93,0.04 V8.9V4.72c1.48,0,2.54-0.04,2.93-0.06v8.32h10.35V4.72C315.98,4.72,317.04,4.68,317.43,4.66z"></path> <path class="st0" d="M341.39,4.72l-7.21,19.5h-2.95l-7.26-19.5c1.11,0,2.1-0.03,3.22-0.17l5.69,15.83l5.61-15.66H341.39z"></path> <path class="st0" d="M351.16,20.03v4.19c-1.05,0.11-1.95,0.13-2.93,0.04v-4.23V8.9V4.72c1.48,0,2.54-0.04,2.93-0.06V8.9V20.03z"></path> <path class="st0" d="M371.7,24.22h-11.37V4.72c1.48,0,2.54-0.04,2.93-0.06v16.86h8.58C371.91,22.39,371.75,23.32,371.7,24.22z"></path> <path class="st0" d="M389.93,24.22h-11.37V4.72c1.48,0,2.54-0.04,2.93-0.06v16.86h8.58C390.14,22.39,389.98,23.32,389.93,24.22z"></path> <path class="st0" d="M408.55,24.22h-11.77V4.72h11.27c0.08,0.87-0.09,1.8-0.14,2.69h-8.21v5.73h7c0.07,0.81-0.08,1.68-0.13,2.52 h-6.87v5.86h8.98C408.77,22.39,408.6,23.32,408.55,24.22z"></path> <path class="st0" d="M414.77,10.2c0.54-0.83,1.36-2.37,1.36-3.55c0-1.2-1.36-0.91-1.36-2.25c0-0.81,0.53-1.41,1.4-1.41 c1.06,0,1.77,0.9,1.77,2.45c0,2.31-1.13,4.39-2.2,5.21C415.33,10.6,414.98,10.47,414.77,10.2z"></path> <path class="st0" d="M423.85,23.6c-0.43-1.1-0.53-2.21-0.44-3.31c1.06,0.68,3.1,1.57,5.26,1.57c2.33,0,3.9-1.02,3.9-2.89 c0-2.02-1.79-2.84-3.94-3.8c-2.15-0.96-4.64-2.08-4.64-5.36c0-3.21,2.58-5.43,6.61-5.43c1.87,0,3.42,0.49,4.17,0.85 c-0.03,0.64-0.23,1.8-0.6,2.74c-0.66-0.45-1.83-1.05-3.45-1.05c-2.15,0-3.81,1.04-3.81,2.64c0,1.57,1.57,2.31,3.57,3.25 c2.18,1.02,5,2.34,5,6.05c0,3.63-2.7,5.68-6.79,5.68C426.88,24.55,424.98,24.15,423.85,23.6z"></path> </g> <g> <path class="st1" d="M101.12,117.29c1.91-1.2,3.83-2.37,5.77-3.52c-12.68-16.62-35.4-38.49-77.48-20.6 c-7.75,3.29-19.26-8.31-26.87-6.8c-1.95,7.04-2.81,14.15-2.46,21.81C29.35,96.98,76.2,103.03,101.12,117.29z"></path> <path class="st1" d="M137.7,116.72c0.7-6.62,1.26-9.73,0.86-14.39c-23.14,9.32-63.43,45.1-115.68,47.71 c-1.47-1.52-2.86-3.12-4.18-4.78c20.97-0.32,45.78-4.94,63.14-15.85c-21.86-4.94-50.95-5.92-71.53,1.96 c-0.66-1.49-1.26-3.02-1.81-4.57c25.54-9.11,53.47-7.27,79.46-1.16c2.82-1.78,5.63-3.58,8.44-5.38 c-28.27-13.32-66.43-18.42-95.87-6.56c0.45,3.58,1.01,7.26,1.99,10.65l-0.01,0c0.02,0.07,0.04,0.13,0.06,0.2l0,0 c0.37,1.32,0.77,2.63,1.21,3.92l0,0c3.27,9.53,8.62,18.28,15.83,25.7l-7.44,11.15l11.26-7.51c11.83,10.49,28.63,16.35,38.28,17.13 l7.69,18.43l7.88-18.67c15.08-2.22,25.63-7.64,38.44-16.5l11.63,7.19l-7.35-11.21c6.28-7.24,12.51-18.52,15.32-27.5l0,0 c0.37-1.18,0.7-2.37,1.01-3.56l0,0C136.83,121.01,137.33,118.89,137.7,116.72z M110.43,144.13c-22.17,4.98-43.57,12.81-64.69,21.12 c-2.13-0.83-4.2-1.76-6.22-2.81c20.35-8.22,59.87-23.27,85.36-25.63c-1.02,1.83-2.14,3.59-3.33,5.3 C117.77,142.62,114.01,143.35,110.43,144.13z"></path> </g> <path class="st0" d="M120.02,58.98l8.62-12.91L115.7,54.7c-11.32-10.28-25.5-16.43-40.69-17.67L69.25,0l-5.77,37.03 C48.07,38.29,33.7,44.6,22.3,55.16l-11.53-7.69l7.69,11.52c-5.73,6.18-10.2,13.23-13.31,20.84c2.84,0.2,4.25,0.6,7.12,2.12 c9.63-21.92,31.53-37.23,57.01-37.23c31.95,0,58.27,24.07,61.83,55.06c1.03-0.24,4.66-1.85,6.81-2.22 C136.19,83.13,130,69.73,120.02,58.98z"></path> </svg> 