<?xml version="1.0" encoding="UTF-8"?> <svg xmlns="http://www.w3.org/2000/svg" xmlns:xlink="http://www.w3.org/1999/xlink" version="1.1" id="Layer_1" x="0px" y="0px" viewBox="0 0 120 120" style="enable-background:new 0 0 120 120;" xml:space="preserve"> <style type="text/css"> .st0{fill:#FFFFFF;} </style> <g> <path class="st0" d="M62.9,37.1c-1,0-1.6,0.2-2,0.5c-0.3,0.4-1.1,1.3-2.2,2.9c-1.1,1.6-2.4,3-3.9,4.3c-1.5,1.3-3.4,2.5-5.9,3.7 c-1.6,0.8-2.8,1.4-3.4,1.9c-0.7,0.5-1,1.2-1,2.3c0,0.9,0.3,1.7,1,2.4c0.7,0.7,1.4,1,2.3,1c1.8,0,5.3-2,10.4-5.9v27.7 c0,1.6,0.4,2.9,1.1,3.7c0.8,0.8,1.7,1.2,3,1.2c2.8,0,4.2-2,4.2-6.1V41.8c0-1.5-0.3-2.6-1-3.4C64.9,37.6,64,37.1,62.9,37.1z"></path> <path class="st0" d="M94.9,25.1C85.6,15.7,73.2,10.6,60,10.6s-25.6,5.1-34.9,14.5C15.7,34.4,10.6,46.8,10.6,60s5.1,25.6,14.5,34.9 c9.3,9.3,21.7,14.5,34.9,14.5s25.6-5.1,34.9-14.5c9.3-9.3,14.5-21.7,14.5-34.9S104.3,34.4,94.9,25.1z M60,102.6 c-23.5,0-42.6-19.1-42.6-42.6c0-23.5,19.1-42.6,42.6-42.6s42.6,19.1,42.6,42.6C102.6,83.5,83.5,102.6,60,102.6z"></path> </g> </svg> 