<?xml version="1.0" encoding="UTF-8"?> <svg xmlns="http://www.w3.org/2000/svg" xmlns:xlink="http://www.w3.org/1999/xlink" version="1.1" id="Layer_1" x="0px" y="0px" viewBox="0 0 120 120" style="enable-background:new 0 0 120 120;" xml:space="preserve"> <style type="text/css"> .st0{fill:#FFFFFF;} </style> <g> <path class="st0" d="M72.4,60.6c-1.1-1.1-2.4-2.1-4-2.9c1.7-1.4,2.9-2.8,3.8-4.3c0.9-1.5,1.3-3.2,1.3-5.3c0-1.6-0.3-3-0.9-4.4 c-0.6-1.3-1.5-2.5-2.7-3.6c-1.2-1-2.6-1.8-4.3-2.3C64,37.3,62.2,37,60.2,37c-2.3,0-4.3,0.3-6.2,1c-1.8,0.6-3.4,1.5-4.6,2.6 c-1.2,1.1-2.2,2.2-2.8,3.4c-0.6,1.2-1,2.3-1,3.4c0,1.1,0.3,2,1,2.7c0.7,0.7,1.4,1,2.3,1c0.7,0,1.3-0.1,1.8-0.4 c0.5-0.2,0.9-0.6,1.1-1c0.3-0.8,0.7-1.6,1.1-2.5c0.4-0.9,0.9-1.6,1.3-2.2c0.5-0.6,1.1-1,1.9-1.4c0.8-0.3,1.8-0.5,3.1-0.5 c1.8,0,3.3,0.6,4.4,1.7c1.1,1.1,1.6,2.5,1.6,4.1c0,2.1-0.7,3.6-2,4.8c-1.4,1.1-3,1.7-4.9,1.7h-1.3c-1.5,0-2.5,0.3-3.3,0.9 c-0.7,0.6-1.1,1.4-1.1,2.4c0,1,0.3,1.8,0.9,2.3c0.6,0.6,1.5,0.8,2.6,0.8c0.2,0,0.8,0,1.7-0.1c0.9-0.1,1.5-0.1,1.9-0.1 c2.3,0,4.1,0.7,5.5,2c1.3,1.4,2,3.2,2,5.6c0,1.6-0.4,3-1.1,4.3c-0.8,1.2-1.7,2.2-2.9,2.8c-1.2,0.6-2.4,0.9-3.7,0.9 c-2.2,0-3.9-0.7-5.1-2.1c-1.2-1.4-2.4-3.5-3.4-6.3c-0.2-0.5-0.5-0.9-1-1.2c-0.5-0.3-1.1-0.5-1.7-0.5c-1.1,0-2.1,0.4-2.9,1.1 c-0.8,0.7-1.1,1.7-1.1,2.9c0,0.9,0.3,2.1,1,3.5c0.6,1.4,1.6,2.8,2.9,4.1c1.3,1.3,2.9,2.4,4.8,3.3c1.9,0.9,4.1,1.3,6.6,1.3 c2.4,0,4.6-0.4,6.6-1.1c2-0.8,3.7-1.8,5.2-3.2c1.5-1.4,2.5-2.9,3.3-4.6c0.7-1.7,1.1-3.5,1.1-5.4c0-1.6-0.3-3-0.8-4.3 C74.3,62.9,73.5,61.7,72.4,60.6z"></path> <path class="st0" d="M94.9,25.1C85.6,15.7,73.2,10.6,60,10.6s-25.6,5.1-34.9,14.5C15.7,34.4,10.6,46.8,10.6,60s5.1,25.6,14.5,34.9 c9.3,9.3,21.7,14.5,34.9,14.5s25.6-5.1,34.9-14.5c9.3-9.3,14.5-21.7,14.5-34.9S104.3,34.4,94.9,25.1z M60,102.6 c-23.5,0-42.6-19.1-42.6-42.6c0-23.5,19.1-42.6,42.6-42.6s42.6,19.1,42.6,42.6C102.6,83.5,83.5,102.6,60,102.6z"></path> </g> </svg> 