<?xml version="1.0" encoding="UTF-8"?> <svg xmlns="http://www.w3.org/2000/svg" xmlns:xlink="http://www.w3.org/1999/xlink" version="1.1" id="Layer_1" x="0px" y="0px" viewBox="0 0 120 120" style="enable-background:new 0 0 120 120;" xml:space="preserve"> <style type="text/css"> .st0{fill:#FFFFFF;} </style> <g> <path class="st0" d="M74.5,76.4c-0.8-0.7-2.1-1-3.6-1h-16c0.5-0.8,1-1.4,1.5-2c1.1-1.4,3.3-3.3,6.3-5.9c3.1-2.5,5.3-4.4,6.6-5.5 c1.3-1.2,2.6-2.8,3.8-4.9c1.3-2.1,1.9-4.4,1.9-6.9c0-1.6-0.3-3.2-0.9-4.7c-0.6-1.5-1.4-2.8-2.5-4c-1.1-1.1-2.3-2-3.8-2.7 c-2.2-1-4.9-1.5-8-1.5c-2.6,0-4.9,0.4-6.8,1.1c-1.9,0.8-3.5,1.8-4.8,3c-1.3,1.2-2.2,2.6-2.8,4.2c-0.6,1.5-0.9,3-0.9,4.4 c0,1.2,0.3,2.1,1,2.8c0.7,0.7,1.5,1,2.5,1c1.2,0,2-0.4,2.7-1.1c0.6-0.7,1.1-1.8,1.6-3.2c0.5-1.4,0.8-2.2,1-2.5 c1.5-2.3,3.6-3.5,6.3-3.5c1.3,0,2.4,0.3,3.5,0.9c1.1,0.6,1.9,1.4,2.5,2.4c0.6,1,0.9,2.2,0.9,3.5c0,1.2-0.3,2.4-0.9,3.7 c-0.6,1.3-1.4,2.5-2.5,3.7C62,59,60.6,60.1,59,61.3c-0.9,0.6-2.5,2-4.7,4c-2.2,2-4.6,4.4-7.4,7.2c-0.7,0.7-1.3,1.7-1.8,2.9 c-0.6,1.2-0.8,2.2-0.8,2.9c0,1.1,0.4,2.1,1.3,3c0.9,0.8,2.1,1.3,3.6,1.3h22.6c1.3,0,2.4-0.3,3-1c0.7-0.7,1-1.5,1-2.5 C75.7,77.9,75.3,77,74.5,76.4z"></path> <path class="st0" d="M94.9,25.1C85.6,15.7,73.2,10.6,60,10.6s-25.6,5.1-34.9,14.5C15.7,34.4,10.6,46.8,10.6,60s5.1,25.6,14.5,34.9 c9.3,9.3,21.7,14.5,34.9,14.5s25.6-5.1,34.9-14.5c9.3-9.3,14.5-21.7,14.5-34.9S104.3,34.4,94.9,25.1z M60,102.6 c-23.5,0-42.6-19.1-42.6-42.6c0-23.5,19.1-42.6,42.6-42.6c23.5,0,42.6,19.1,42.6,42.6C102.6,83.5,83.5,102.6,60,102.6z"></path> </g> </svg> 