<svg version="1.1" id="Layer_1" xmlns="http://www.w3.org/2000/svg" x="0" y="0" viewBox="0 0 524.2 216" xml:space="preserve"><style>.st0{fill:#fff}</style><path class="st0" d="M205 76.9c0 8.2.3 16.2.7 20.5h-7.2c.4-4.5.7-13.2.7-21.5v-3.1c0-8.5-.3-17.1-.7-21.5h7.2c-.4 4.3-.7 12.2-.7 20.1 2.4.1 4.3.2 7.6.2 7.9 0 11.9-.1 14.9-.3 0-8-.3-15.8-.7-20h7.2c-.4 4.5-.7 13.2-.7 21.5v3.1c0 8.5.3 17.1.7 21.5h-7.2c.4-4.3.7-12.5.7-20.6-2.4-.1-4.3-.2-7.6-.2-7.8.1-11.8.1-14.9.3zm74.9 20.7c-6.1-.1-13.3-.2-18.1-.2h-10.4c.4-4.5.7-13.2.7-21.5v-3.1c0-8.5-.3-17.1-.7-21.7 4.6.1 8 .1 12.1.1 5.8 0 12.6-.1 15.7-.3l-.8 6.1c-.3.1-2 .3-2.2.2-2.4-.5-7.6-.9-12.4-.9-1.8 0-3.7.1-5.5.1-.2 4.2-.3 9.4-.3 14.7 7-.1 12.9-.3 15.4-.6l-.7 6.2c-2.7-.3-8.3-.5-14.7-.6 0 5.8.1 11.5.3 16 2.1.1 4.5.1 6.7.1 5.4 0 11.2-.3 13.6-.9.3-.1 2 .1 2.2.2l-.9 6.1zm21-11.6c-2 5.9-3.3 10-3.7 11.5h-6.6c-.1-.3-.1-2.4 0-2.6 3.5-7.3 10.5-24.8 17.7-43.5l5.9-.3c7.2 19 14.1 36.5 17.5 43.7.1.2.1 2.3 0 2.6h-6.9c-.5-1.5-1.8-5.6-3.9-11.5-1.9-.1-3.6-.1-6.3-.1-6.9 0-10.8 0-13.7.2zm18.1-5.3c-2.3-6.4-5.1-14.1-8.3-22.9-3.1 8.7-5.8 16.6-8.1 22.9 1.3.1 2.7.1 4.6.1 5.5 0 9.1-.1 11.8-.1zm43.6-1.5C368.5 86 374 92 377 94.9c.1.3.1 2.3 0 2.6l-7 .2c-2.2-3.1-7.5-9.6-13.6-16.6-1.8 0-4.1-.2-6.7-.4.1 6.8.3 13.2.7 16.8h-7.2c.4-4.5.7-13.2.7-21.5v-3.1c0-8.5-.3-17.1-.7-21.5 4.3 0 15.2-.9 15.8-.9 8.9 0 14.9 5.6 14.9 14.1 0 5.3-2.3 9.6-6.7 12.4-1.4.8-3.1 1.6-4.6 2.2zm4.6-13.5c0-6.4-3.9-10.1-10.4-10.1-1.4 0-4.1.1-6.8.3-.2 4.6-.3 10.8-.3 16.8v2.8c2.6.2 5.3.3 6.9.3 6.7 0 10.6-3.7 10.6-10.1zm22.5 31.7c.4-4.5.7-13.2.7-21.5v-3.1c0-8.5-.3-17.1-.7-21.5h7.2c-.4 4.5-.7 13.2-.7 21.5v3.1c0 8.5.3 17.1.7 21.5h-7.2zm51.1 0c-1.1-2.6-8.4-15.1-21.9-38.1v16.6c0 8.5.3 17.1.7 21.5H413c.4-4.5.7-13.2.7-21.5v-3.1c0-8.5-.3-17.1-.7-21.5h8.4c1.6 3.8 9.2 16.7 21.7 38.3V72.8c0-8.5-.3-17.1-.7-21.5h6.6c-.4 4.5-.7 13.2-.7 21.5v3.1c0 8.5.3 17.1.7 21.5h-8.2zm44.1 1.3c-13.3 0-21.6-9.3-21.6-23 0-9 3.6-16.6 9.6-20.8 4.5-3 11.6-5 12.3-5 4.6 0 10.9 1.6 15.6 4l-2.3 6.2c-.3.1-1.2.1-1.5 0l-9.8-4.4c-.8-.1-1.8-.2-2.7-.2-9 0-14.8 6.9-14.8 18.6 0 11.9 5.9 18.9 15.8 18.9 3.7 0 7.4-.9 10.5-2.6.2-1.9.3-4.4.3-6.9 0-1.2 0-2.4-.1-3.5-4.2 0-8.6.1-10.4.3l.3-5.8c2.1.1 6.5.3 9.9.3 2.4 0 5-.1 6.5-.1-.2 1.6-.3 5.2-.3 8.9 0 4.1.2 7 .5 8.3-7.3 5.3-17 6.8-17.8 6.8zm-272 35.3c-.4.6-.9 1.2-1.7 1.8-.9-.6-1.8-1.3-2.7-2-1.4 1.3-3.2 2-5.1 2-3.1 0-5.2-1.7-5.2-4.4 0-2.1 1.4-3.9 3.6-4.8-1-1.6-1.6-3.2-1.6-4.7 0-2.6 1.9-4.6 4.7-4.6 2.5 0 4.2 1.7 4.2 4s-1.6 4.2-4.1 5.1c1 1.2 2.1 2.5 3.4 3.7.4-1.1.6-2.5.3-4.3.8.1 1.7.5 2.5 1.1 0 1.9-.4 3.5-1.1 4.8.9.8 1.9 1.6 2.8 2.3zm-6.1-1.6c-1.6-1.4-3.1-3-4.3-4.6-1.2.8-1.8 1.9-1.8 3.1 0 1.6 1.2 2.6 3 2.6 1 0 2.2-.3 3.1-1.1zm-4.2-10.8c0 1.1.5 2.3 1.4 3.7 1.6-.8 2.5-2.1 2.5-3.5 0-1.3-.8-2.2-2-2.2-1.1-.1-1.9.7-1.9 2zm23.4 5.5c0-5.7 3.9-9.8 9.1-9.8 2.5 0 4.2.9 5 1.6 0 .8-.3 2.2-.8 3.4-.5-1-1.9-2.5-4.4-2.5-3.6 0-6.2 3-6.2 7s2.7 6.6 6.3 6.6c2.4 0 4.5-1.2 5.4-2 .1.8-.1 1.6-.3 2.6-1 .8-3 1.9-5.8 1.9-4.8-.1-8.3-3.5-8.3-8.8zm20-.1c0-5.4 3.7-9.8 8.9-9.8 4.7 0 8 3.6 8 8.7 0 5.4-3.7 9.8-8.9 9.8-4.8.1-8-3.5-8-8.7zm14.1-.6c0-3.5-2.1-6.6-5.7-6.6s-5.8 3.2-5.8 6.8c0 3.6 2.2 6.6 5.6 6.6 3.7.1 5.9-3.2 5.9-6.8zm26 9.2l-1.4-14.2-5.2 14.1c-.7.1-1.3.2-2 .2l-5.2-14.2-1.7 14.1c-.8-.1-1.7-.1-2.5-.2l2.4-17.8c.9-.1 1.9-.2 2.8-.3l5.2 14.4 5.3-14.3c1 .1 1.9.2 2.9.2l2.2 17.7c-.8.2-1.8.3-2.8.3zm27 0l-1.4-14.2-5.2 14.1c-.7.1-1.3.2-2 .2l-5.2-14.2-1.7 14.1c-.8-.1-1.7-.1-2.5-.2l2.4-17.8c.9-.1 1.9-.2 2.8-.3l5.2 14.4 5.3-14.3c1 .1 1.9.2 2.9.2l2.2 17.7c-.9.2-1.8.3-2.8.3zm23.6-18.1v10.6c0 4.7-2.6 7.6-7 7.6-4.5 0-7.3-3-7.3-7.6v-10.6c1.4 0 2.3 0 2.7-.1V128c0 3.2 1.7 5.2 4.6 5.2 2.9 0 4.5-2 4.5-5.2v-10.6c1.3.2 2.2.2 2.5.1zm22.4 0v17.9h-2l-10.2-13.1v13.1c-.9.1-1.7.1-2.5 0v-17.9c.7 0 1.3 0 2-.1l10.3 13.1v-13c1.2.1 2.1.1 2.4 0zm11.6 14.1v3.8c-1 .1-1.8.1-2.7 0v-17.9c1.4 0 2.3 0 2.7-.1v14.2zm6.5-4.5c0-5.7 3.9-9.8 9.1-9.8 2.5 0 4.2.9 5 1.6 0 .8-.3 2.2-.8 3.4-.5-1-1.9-2.5-4.4-2.5-3.6 0-6.2 3-6.2 7s2.7 6.6 6.3 6.6c2.4 0 4.5-1.2 5.4-2 .1.8-.1 1.6-.3 2.6-1 .8-3 1.9-5.8 1.9-4.9-.1-8.3-3.5-8.3-8.8zm30.7 3.5h-7.4l-1.8 4.9-2.7-.1 7.1-17.9c.8 0 1.5 0 2.3-.1l7.4 18-2.9.2-2-5zm-.9-2.3l-2.9-7.4-2.8 7.4h5.7zm22.9-8.2h-6v15.4c-1 .1-1.8.1-2.7 0V120H415c0-.8.2-1.7.1-2.5H430c.1.9-.1 1.7-.1 2.6zm9.3 11.5v3.8c-1 .1-1.8.1-2.7 0v-17.9c1.4 0 2.3 0 2.7-.1v14.2zm6.4-4.6c0-5.4 3.7-9.8 8.9-9.8 4.7 0 8 3.6 8 8.7 0 5.4-3.7 9.8-8.9 9.8-4.7.1-8-3.5-8-8.7zm14.1-.6c0-3.5-2.1-6.6-5.7-6.6s-5.8 3.2-5.8 6.8c0 3.6 2.2 6.6 5.6 6.6 3.7.1 5.9-3.2 5.9-6.8zm24.5-8.9v17.9h-2l-10.2-13v13.1c-.9.1-1.7.1-2.5 0v-17.9c.7 0 1.3 0 2-.1l10.3 13.1v-13c1.2 0 2.1 0 2.4-.1zm7.6 17.4c-.4-1-.5-2-.4-3 1 .6 2.8 1.4 4.8 1.4 2.1 0 3.6-.9 3.6-2.7 0-1.9-1.6-2.6-3.6-3.5-2-.9-4.3-1.9-4.3-4.9 0-2.9 2.4-5 6.1-5 1.7 0 3.1.4 3.8.8 0 .6-.2 1.6-.5 2.5-.6-.4-1.7-1-3.2-1-2 0-3.5 1-3.5 2.4s1.4 2.1 3.3 3c2 .9 4.6 2.1 4.6 5.5 0 3.3-2.5 5.2-6.2 5.2-1.8.2-3.5-.2-4.5-.7zm-252.1 67.9c-13.4 0-21.7-9.2-21.7-22.9 0-9 3.6-16.8 9.6-20.8 4.7-3.1 12.2-5 13-5 4 0 9.3 1.4 13.4 3.5l-2.3 6.2c-.3.1-1.2.1-1.5 0l-8.8-4c-.5-.1-1-.1-1.6-.1-9.2 0-15.1 6.9-15.1 18.5 0 11.9 6.2 18.8 16.6 18.8 4 0 8-1 12.1-3.3l1.8 4.6c-5.7 3.1-10.4 4.5-15.5 4.5zm58-1c-6.1-.1-13.3-.2-18.1-.2h-10.4c.4-4.5.7-13.2.7-21.5V177c0-8.5-.3-17.1-.7-21.7 4.6.1 8 .1 12.1.1 5.8 0 12.6-.1 15.7-.3l-.8 6.1c-.3.1-2 .3-2.2.2-2.4-.5-7.6-.9-12.4-.9-1.8 0-3.7.1-5.5.1-.2 4.2-.3 9.4-.3 14.7 7-.1 12.9-.3 15.4-.6l-.7 6.2c-2.7-.3-8.3-.5-14.7-.6 0 5.8.1 11.5.3 16 2.1.1 4.5.1 6.7.1 5.4 0 11.2-.3 13.6-.9.3-.1 2 .1 2.2.2l-.9 6.1zm42.5-.2c-1.1-2.6-8.4-15.1-21.9-38.1V180c0 8.5.3 17.1.7 21.5h-6.6c.4-4.5.7-13.2.7-21.5v-3c0-8.5-.3-17.1-.7-21.5h8.4c1.6 3.8 9.2 16.7 21.7 38.3V177c0-8.5-.3-17.1-.7-21.5h6.6c-.4 4.5-.7 13.2-.7 21.5v3.1c0 8.5.3 17.1.7 21.5h-8.2zm35.4 0c.4-4.5.7-13.2.7-21.5V177c0-6-.1-11.9-.3-16.5-5.2.1-10.5.5-12.9.9-.3.1-2-.1-2.2-.2l.3-6c3 .1 10.2.3 17.1.3h2.2c6.9 0 14.1-.1 17.1-.3l-.7 6.1c-.3.1-2 .3-2.2.2-2.2-.5-7.1-.8-12.1-1-.2 4.6-.3 10.6-.3 16.4v3.1c0 8.5.3 17.1.7 21.5h-7.4zm61.3.2c-6.1-.1-13.3-.2-18.1-.2h-10.4c.4-4.5.7-13.2.7-21.5V177c0-8.5-.3-17.1-.7-21.7 4.6.1 8 .1 12.1.1 5.8 0 12.6-.1 15.7-.3l-.8 6.1c-.3.1-2 .3-2.2.2-2.4-.5-7.6-.9-12.4-.9-1.8 0-3.7.1-5.5.1-.2 4.2-.3 9.4-.3 14.7 7-.1 12.9-.3 15.4-.6l-.7 6.2c-2.7-.3-8.3-.5-14.7-.6 0 5.8.1 11.5.3 16 2.1.1 4.5.1 6.7.1 5.4 0 11.2-.3 13.6-.9.3-.1 2 .1 2.2.2l-.9 6.1zm31.6-18.4c5.8 6.7 11.4 12.8 14.3 15.7.1.3.1 2.3 0 2.6l-7 .2c-2.2-3.1-7.5-9.6-13.6-16.6-1.8 0-4.1-.2-6.7-.4.1 6.8.3 13.2.7 16.8H449c.4-4.5.7-13.2.7-21.5V177c0-8.5-.3-17.1-.7-21.5 4.3 0 15.2-.8 15.8-.8 8.9 0 14.9 5.6 14.9 14.1 0 5.3-2.3 9.6-6.7 12.4-1.4.7-3 1.5-4.5 2.2zm4.6-13.5c0-6.4-3.9-10.2-10.4-10.2-1.4 0-4.1.1-6.8.3-.2 4.6-.3 10.8-.3 16.8v2.7c2.6.2 5.3.3 6.9.3 6.6.2 10.6-3.6 10.6-9.9zM271.9 15.3v18.4h-2.1l-10.5-13.4v13.4c-.9.1-1.7.1-2.5 0V15.3c.7 0 1.4 0 2-.1l10.6 13.5V15.3h2.5zm18.6 13.4h-7.6l-1.9 5-2.7-.1 7.3-18.4c.8 0 1.5 0 2.4-.1l7.6 18.5-3 .2-2.1-5.1zm-.9-2.4l-2.9-7.6-2.9 7.6h5.8zm10.7 6.8c-.4-1-.5-2.1-.4-3.1 1 .6 2.9 1.5 5 1.5 2.2 0 3.7-1 3.7-2.7 0-1.9-1.7-2.7-3.7-3.6-2-.9-4.4-2-4.4-5.1 0-3 2.4-5.1 6.2-5.1 1.8 0 3.2.5 3.9.8 0 .6-.2 1.7-.6 2.6-.6-.4-1.7-1-3.3-1-2 0-3.6 1-3.6 2.5s1.5 2.2 3.4 3.1c2.1 1 4.7 2.2 4.7 5.7 0 3.4-2.5 5.4-6.4 5.4-1.6-.1-3.4-.5-4.5-1zm33.3-17.8v18.4c-1 .1-1.8.1-2.8 0v-8.1H321v8.1c-1 .1-1.8.1-2.8 0V15.4c1.4 0 2.4 0 2.8-.1v7.8h9.8v-7.8h2.8zm22.6 0l-6.8 18.4h-2.8l-6.8-18.4c1 0 2 0 3-.2l5.4 14.9 5.3-14.8h2.7zm9.2 14.4v3.9c-1 .1-1.8.1-2.8 0V15.4c1.4 0 2.4 0 2.8-.1v14.4zm19.4 4h-10.7V15.3c1.4 0 2.4 0 2.8-.1v15.9h8.1c0 .9-.1 1.7-.2 2.6zm17.2 0h-10.7V15.3c1.4 0 2.4 0 2.8-.1v15.9h8.1c0 .9-.2 1.7-.2 2.6zm17.5 0h-11.1V15.3H419c.1.8-.1 1.7-.1 2.5h-7.7v5.4h6.6c.1.8-.1 1.6-.1 2.4h-6.5v5.5h8.5c.1.9-.1 1.7-.2 2.6zm5.9-13.2c.5-.8 1.3-2.2 1.3-3.3 0-1.1-1.3-.9-1.3-2.1 0-.8.5-1.3 1.3-1.3 1 0 1.7.9 1.7 2.3 0 2.2-1.1 4.1-2.1 4.9-.4-.1-.7-.3-.9-.5zm8.6 12.6c-.4-1-.5-2.1-.4-3.1 1 .6 2.9 1.5 5 1.5 2.2 0 3.7-1 3.7-2.7 0-1.9-1.7-2.7-3.7-3.6-2-.9-4.4-2-4.4-5.1 0-3 2.4-5.1 6.2-5.1 1.8 0 3.2.5 3.9.8 0 .6-.2 1.7-.6 2.6-.6-.4-1.7-1-3.3-1-2 0-3.6 1-3.6 2.5s1.5 2.2 3.4 3.1c2.1 1 4.7 2.2 4.7 5.7 0 3.4-2.5 5.4-6.4 5.4-1.7-.1-3.5-.5-4.5-1zm-318.2 95.1c1.9-1.2 3.8-2.4 5.8-3.5-12.7-16.6-35.4-38.5-77.5-20.6-7.7 3.3-19.3-8.3-26.9-6.8-2 7-2.8 14.2-2.5 21.8 29.4-11.2 76.2-5.2 101.1 9.1z"/><path class="st0" d="M152.4 127.6c.7-6.6 1.3-9.7.9-14.4-23.1 9.3-63.4 45.1-115.7 47.7a48.1 48.1 0 01-4.2-4.8c21-.3 45.8-4.9 63.1-15.9-21.9-4.9-50.9-5.9-71.5 2-.7-1.5-1.3-3-1.8-4.6 25.5-9.1 53.5-7.3 79.5-1.2l8.4-5.4c-28.3-13.3-66.4-18.4-95.9-6.6.5 3.6 1 7.3 2 10.7 0 .1 0 .1.1.2l1.2 3.9c3.3 9.5 8.6 18.3 15.8 25.7l-7.4 11.2 11.3-7.5c11.8 10.5 28.6 16.3 38.3 17.1l7.7 18.4 7.9-18.7c15.1-2.2 25.6-7.6 38.4-16.5l11.6 7.2-7.4-11.2c6.3-7.2 12.5-18.5 15.3-27.5.4-1.2.7-2.4 1-3.6.5-1.9 1-4 1.4-6.2zM125.1 155c-22.2 5-43.6 12.8-64.7 21.1-2.1-.8-4.2-1.8-6.2-2.8 20.3-8.2 59.9-23.3 85.4-25.6-1 1.8-2.1 3.6-3.3 5.3-3.8.5-7.6 1.3-11.2 2zm9.6-85.1l8.6-12.9-12.9 8.6c-11.3-10.3-25.5-16.4-40.7-17.7l-5.8-37-5.8 37C62.8 49.2 48.4 55.5 37 66.1l-11.5-7.7 7.7 11.5C27.4 76.1 23 83.1 19.9 90.7c2.8.2 4.3.6 7.1 2.1 9.6-21.9 31.5-37.2 57-37.2 31.9 0 58.3 24.1 61.8 55.1 1-.2 4.7-1.8 6.8-2.2-1.7-14.5-7.9-27.9-17.9-38.6z"/></svg>